<?xml version="1.0" encoding="utf-8"?>
<!-- Generator: Adobe Illustrator 21.0.2, SVG Export Plug-In . SVG Version: 6.00 Build 0)  -->
<svg version="1.1" id="Ebene_1" xmlns="http://www.w3.org/2000/svg" xmlns:xlink="http://www.w3.org/1999/xlink" x="0px" y="0px"
	 viewBox="0 0 128 128" style="enable-background:new 0 0 128 128;" xml:space="preserve">
<style type="text/css">
	.st0{fill:#E2001A;}
	.st1{fill:#FFFFFF;}
</style>
<circle class="st0" cx="64" cy="64" r="64"/>
<g>
	<path class="st1" d="M47.4,30.7H35.8v7.2c-2.8,3.2-9,11.1-9,19.7v40.3c0,2.5,2,4.5,4.5,4.5h20.5c2.5,0,4.5-2,4.5-4.5V57.6
		c0-8.6-6.1-16.5-9-19.7V30.7z M51.8,62.1V80H31.4V62.1H51.8z"/>
	<path class="st1" d="M47.4,26.2v-9c0-2.5-2-4.5-4.5-4.5h-2.6c-2.5,0-4.5,2-4.5,4.5v9H47.4z"/>
</g>
<g>
	<path class="st1" d="M89.6,45.2L66.8,67.9l45.5-11.4C112.4,56.6,106.7,42.3,89.6,45.2z"/>
	<path class="st1" d="M114.1,62.5c-0.7-0.5-1.6-0.7-2.4-0.5L66.2,73.3c-1.3,0.3-2.2,1.5-2.2,2.8v5.7c0,1.6,1.3,2.8,2.8,2.8h2.8
		c1.6,0,2.8,1.3,2.8,2.8c0,1.6-1.3,2.8-2.8,2.8h-2.8c-1.6,0-2.8,1.3-2.8,2.8v5.7c0,0.9,0.4,1.7,1.1,2.2c0.7,0.5,1.6,0.7,2.4,0.5
		L113,90.2c1.3-0.3,2.2-1.5,2.2-2.8V64.7C115.2,63.8,114.8,63,114.1,62.5z M83.9,87.5c-1.6,0-2.8-1.3-2.8-2.8c0-1.6,1.3-2.8,2.8-2.8
		c1.6,0,2.8,1.3,2.8,2.8C86.8,86.2,85.5,87.5,83.9,87.5z M89.6,78.9c-1.6,0-2.8-1.3-2.8-2.8c0-1.6,1.3-2.8,2.8-2.8
		c1.6,0,2.8,1.3,2.8,2.8C92.4,77.7,91.2,78.9,89.6,78.9z M101,87.5c-3.1,0-5.7-2.5-5.7-5.7c0-3.1,2.5-5.7,5.7-5.7
		c3.1,0,5.7,2.5,5.7,5.7C106.7,84.9,104.1,87.5,101,87.5z"/>
</g>
</svg>
