<svg xmlns="http://www.w3.org/2000/svg" width="37" height="36" viewBox="0 0 37 36">
  <g fill="none" transform="translate(-15 -16)">
    <circle cx="32" cy="32" r="32"/>
    <g fill="#000" transform="translate(15 16)">
      <rect width="2.75" height="5.5" x="34.15" y="9.3"/>
      <path d="M12.8 24.1L15.55 24.1 15.55 28.5 5.85 29.5 5.85 25.55 3.1 25.55 3.1 35.2 5.85 35.2 5.85 32.25 17.15 31.05C17.85 30.95 18.35 30.35 18.35 29.7L18.35 24.1 21.1 24.1 21.1 21.35 12.8 21.35 12.8 24.1zM27.65 12.05C27.65 13.55 26.4 14.8 24.9 14.8L1.65 14.8 1.65 16.2C1.65 16.95 2.25 17.6 3.05 17.6L29 17.6C29.75 17.6 30.4 17 30.4 16.2L30.4 9 27.65 9.9 27.65 12.05z"/>
      <path d="M30.75,0 L5.8,0 C2.75,0 0.3,2.5 0.3,5.5 L0.3,9.65 C0.3,10.4 0.9,11.05 1.7,11.05 L22.5,11.05 C23.25,11.05 23.9,10.45 23.9,9.65 L23.9,6.5 L31.25,4.05 C31.8,3.85 32.2,3.35 32.2,2.75 L32.2,1.35 C32.15,0.6 31.55,0 30.75,0 Z"/>
    </g>
  </g>
</svg>
