<svg xmlns="http://www.w3.org/2000/svg" width="38" height="46" viewBox="0 0 38 46">
  <g fill="none" transform="translate(-13 -9)">
    <circle cx="32" cy="32" r="32"/>
    <g fill="#000" transform="translate(13 9.5)">
      <polygon points="32.05 11.3 28.35 11.3 28.35 3.85 9.65 3.85 9.65 11.3 5.95 11.3 5.95 .1 32.05 .1"/>
      <path d="M32.05,15.05 L28.3,15.05 L28.3,18.8 L9.65,18.8 L9.65,15.05 L5.9,15.05 C2.8,15.05 0.3,17.55 0.3,20.65 L0.3,37.45 L5.9,37.45 L5.9,44.9 L32.05,44.9 L32.05,37.45 L37.65,37.45 L37.65,20.65 C37.65,17.55 35.15,15.05 32.05,15.05 Z M28.35,41.15 L9.65,41.15 L9.65,33.7 L28.3,33.7 L28.3,41.15 L28.35,41.15 Z M28.35,28.1 C27.3,28.1 26.5,27.25 26.5,26.25 C26.5,25.2 27.35,24.4 28.35,24.4 C29.35,24.4 30.2,25.25 30.2,26.25 C30.2,27.25 29.35,28.1 28.35,28.1 Z"/>
    </g>
  </g>
</svg>
