<?xml version="1.0" encoding="utf-8"?>
<!-- Generator: Adobe Illustrator 21.0.2, SVG Export Plug-In . SVG Version: 6.00 Build 0)  -->
<svg version="1.1" id="Ebene_1" xmlns="http://www.w3.org/2000/svg" xmlns:xlink="http://www.w3.org/1999/xlink" x="0px" y="0px"
	 viewBox="0 0 128 128" style="enable-background:new 0 0 128 128;" xml:space="preserve">
<style type="text/css">
	.st0{fill:#E2001A;}
	.st1{fill:#FFFFFF;}
</style>
<circle class="st0" cx="64" cy="64" r="64"/>
<path class="st1" d="M98.6,44.8c0-10.6-8.6-19.2-19.2-19.2c-6.7,0-12,2-15.4,5.4c-3.3-3.5-8.7-5.4-15.4-5.4
	c-10.6,0-19.2,8.6-19.2,19.2c0,7.4,2.7,14.7,7.2,20.1c-2.3,10.1,3.3,30.4,4.5,34.7c0.4,1.6,1.9,2.7,3.5,2.8c0.1,0,0.1,0,0.2,0
	c1.6,0,3-1,3.6-2.4c1.7-4.4,8.4-16.8,15.6-16.8c7.2,0,13.9,12.4,15.6,16.8c0.6,1.5,2.2,2.5,3.8,2.4c1.6-0.1,3-1.2,3.5-2.8
	c1.2-4.3,6.7-24.6,4.5-34.7C95.9,59.5,98.6,52.2,98.6,44.8z M79.4,60.2H67.8v11.5h-7.7V60.2H48.6v-7.7h11.5V41h7.7v11.5h11.5V60.2z"
	/>
</svg>
