<?xml version="1.0" encoding="utf-8"?>
<!-- Generator: Adobe Illustrator 21.0.2, SVG Export Plug-In . SVG Version: 6.00 Build 0)  -->
<svg version="1.1" id="Ebene_1" xmlns="http://www.w3.org/2000/svg" xmlns:xlink="http://www.w3.org/1999/xlink" x="0px" y="0px"
	 viewBox="0 0 128 128" style="enable-background:new 0 0 128 128;" xml:space="preserve">
<style type="text/css">
	.st0{fill:#E2001A;}
	.st1{fill:#FFFFFF;}
</style>
<circle class="st0" cx="64" cy="64" r="64"/>
<g>
	<path class="st1" d="M74.5,55v-7.3h-7v7h-7v-7h-7V55c-11.8,1.7-21,11.9-21,24.2v10.5h62.9V79.1C95.4,66.9,86.3,56.7,74.5,55z
		 M64,82.6c-5.8,0-10.5-4.7-10.5-10.5c0-5.8,4.7-10.5,10.5-10.5s10.5,4.7,10.5,10.5C74.5,77.9,69.8,82.6,64,82.6z"/>
</g>
<path class="st1" d="M64,25.6c-22.6,0-38.4,10.5-38.4,25.6H32h6.4h6.4v-8.6c5-2.8,12.2-4.2,19.2-4.2c7.2,0,14.2,1.5,19,4
	c0.1,0,0.1,0.1,0.2,0.1v8.6h6.4H96h6.4C102.4,36.1,86.6,25.6,64,25.6z"/>
</svg>
