<?xml version="1.0" encoding="utf-8"?>
<!-- Generator: Adobe Illustrator 21.0.2, SVG Export Plug-In . SVG Version: 6.00 Build 0)  -->
<svg version="1.1" id="Ebene_1" xmlns="http://www.w3.org/2000/svg" xmlns:xlink="http://www.w3.org/1999/xlink" x="0px" y="0px"
	 viewBox="0 0 128 128" style="enable-background:new 0 0 128 128;" xml:space="preserve">
<style type="text/css">
	.st0{fill:#E2001A;}
	.st1{fill:#FFFFFF;}
</style>
<circle class="st0" cx="64" cy="64" r="64"/>
<g>
	<path class="st1" d="M102.4,40.3v-7c0-3.9-3.2-7-7-7H39c-3.9,0-7,3.2-7,7v7H102.4z M53.1,29.8c1.9,0,3.5,1.6,3.5,3.5
		c0,1.9-1.6,3.5-3.5,3.5c-1.9,0-3.5-1.6-3.5-3.5C49.6,31.3,51.2,29.8,53.1,29.8z M42.6,29.8c1.9,0,3.5,1.6,3.5,3.5
		c0,1.9-1.6,3.5-3.5,3.5c-1.9,0-3.5-1.6-3.5-3.5C39,31.3,40.6,29.8,42.6,29.8z"/>
	<path class="st1" d="M32,50.2V89c0,3.9,3.2,7,7,7h56.3c3.9,0,7-3.2,7-7V50.2H32z M94.7,89H84.2V72H70.7v9.9h3.5v7H60.2v-7h3.5V72
		H50.2v17H39.7v-7h3.5V68.5c0-1.9,1.6-3.5,3.5-3.5h17v-3.5h-3.5v-7h14.1v7h-3.5V65h17c1.9,0,3.5,1.6,3.5,3.5v13.4h3.5V89z"/>
</g>
</svg>
