<?xml version="1.0" encoding="utf-8"?>
<!-- Generator: Adobe Illustrator 21.0.2, SVG Export Plug-In . SVG Version: 6.00 Build 0)  -->
<svg version="1.1" id="Ebene_1" xmlns="http://www.w3.org/2000/svg" xmlns:xlink="http://www.w3.org/1999/xlink" x="0px" y="0px"
	 viewBox="0 0 128 128" style="enable-background:new 0 0 128 128;" xml:space="preserve">
<style type="text/css">
	.st0{fill:#E2001A;}
	.st1{fill:#FFFFFF;}
</style>
<circle class="st0" cx="64" cy="64" r="64"/>
<g>
	<path class="st1" d="M67.2,38.4v13.3c5.5,1.4,9.6,6.4,9.6,12.3s-4.1,10.9-9.6,12.3v13.3h35.2V76.8H89.6V51.2h12.8V38.4H67.2z"/>
	<path class="st1" d="M51.2,64c0-5.9,4.1-10.9,9.6-12.3V38.4H25.6v12.8h12.8v25.6H25.6v12.8h35.2V76.3C55.3,74.9,51.2,69.9,51.2,64z
		"/>
	<rect x="25.6" y="57.6" class="st1" width="6.4" height="12.8"/>
	<rect x="96" y="57.6" class="st1" width="6.4" height="12.8"/>
	<circle class="st1" cx="64" cy="64" r="6.4"/>
</g>
</svg>
