<?xml version="1.0" encoding="UTF-8"?>
<svg width="50px" height="36px" viewBox="0 0 50 36" version="1.1" xmlns="http://www.w3.org/2000/svg" xmlns:xlink="http://www.w3.org/1999/xlink">
    <!-- Generator: Sketch 46.2 (44496) - http://www.bohemiancoding.com/sketch -->
    <title>icon-taxi</title>
    <desc>Created with Sketch.</desc>
    <defs></defs>
    <g id="New-Icons---no-artboard" stroke="none" stroke-width="1" fill="none" fill-rule="evenodd">
        <g id="icon-taxi" transform="translate(-7.000000, -12.000000)" fill-rule="nonzero" fill="#000000">
            <g transform="translate(7.500000, 12.500000)">
                <circle id="Oval" cx="37.75" cy="30.8" r="4.7"></circle>
                <circle id="Oval" cx="14.25" cy="30.8" r="4.7"></circle>
                <path d="M35.4,2.65 C35.4,1.35 34.35,0.3 33.05,0.3 L26,0.3 C24.7,0.3 23.65,1.35 23.65,2.65 L23.65,5 L35.4,5 L35.4,2.65 Z" id="Shape"></path>
                <path d="M44.75,16.75 L40.05,7.35 L18.95,7.35 L14.25,16.75 L4.85,16.75 C2.25,16.75 0.15,18.85 0.15,21.45 L0.15,28.5 C0.15,29.8 1.2,30.85 2.5,30.85 L6.15,30.85 C6.15,26.35 9.8,22.75 14.25,22.75 C18.7,22.75 22.35,26.4 22.35,30.85 L29.6,30.85 C29.6,26.35 33.25,22.75 37.7,22.75 C42.2,22.75 45.8,26.4 45.8,30.85 L47.1,30.85 C48.4,30.85 49.45,29.8 49.45,28.5 L49.45,21.4 C49.45,18.85 47.35,16.75 44.75,16.75 Z M37.1,16.75 L18.95,16.75 L21.3,12.05 L37.1,12.05 L37.1,16.75 Z" id="Shape"></path>
            </g>
        </g>
    </g>
</svg>