<?xml version="1.0" encoding="UTF-8"?>
<svg width="58px" height="20px" viewBox="0 0 58 20" version="1.1" xmlns="http://www.w3.org/2000/svg" xmlns:xlink="http://www.w3.org/1999/xlink">
    <!-- Generator: Sketch 46.2 (44496) - http://www.bohemiancoding.com/sketch -->
    <title>icon-opticians</title>
    <desc>Created with Sketch.</desc>
    <defs></defs>
    <g id="New-Icons---no-artboard" stroke="none" stroke-width="1" fill="none" fill-rule="evenodd">
        <g id="icon-opticians" transform="translate(-3.000000, -22.000000)" fill-rule="nonzero" fill="#000000">
            <g transform="translate(3.000000, 22.000000)" id="Shape">
                <path d="M41,0.4 C37.85,0.4 35.1,1.95 33.35,4.3 C32.15,3.4 30.65,2.8 29,2.8 C27.35,2.8 25.9,3.35 24.65,4.3 C22.9,1.95 20.15,0.4 17,0.4 C11.7,0.4 7.4,4.7 7.4,10 C7.4,15.3 11.7,19.6 17,19.6 C22.3,19.6 26.6,15.3 26.6,10 C26.6,8.7 27.7,7.6 29,7.6 C30.3,7.6 31.4,8.7 31.4,10 C31.4,15.3 35.7,19.6 41,19.6 C46.3,19.6 50.6,15.3 50.6,10 C50.6,4.7 46.3,0.4 41,0.4 Z M17,14.8 C14.35,14.8 12.2,12.65 12.2,10 C12.2,7.35 14.35,5.2 17,5.2 C19.65,5.2 21.8,7.35 21.8,10 C21.8,12.65 19.65,14.8 17,14.8 Z M41,14.8 C38.35,14.8 36.2,12.65 36.2,10 C36.2,7.35 38.35,5.2 41,5.2 C43.65,5.2 45.8,7.35 45.8,10 C45.8,12.65 43.65,14.8 41,14.8 Z"></path>
                <path d="M0.2,10 L5,10 C5,7.9 5.55,5.8 6.6,4 L2.45,1.6 C1,4.15 0.2,7.05 0.2,10 Z"></path>
                <path d="M55.55,1.6 L51.4,4 C52.45,5.8 53,7.9 53,10 L57.8,10 C57.8,7.05 57,4.15 55.55,1.6 Z"></path>
            </g>
        </g>
    </g>
</svg>