<?xml version="1.0" encoding="utf-8"?>
<!-- Generator: Adobe Illustrator 21.0.2, SVG Export Plug-In . SVG Version: 6.00 Build 0)  -->
<svg version="1.1" id="Ebene_1" xmlns="http://www.w3.org/2000/svg" xmlns:xlink="http://www.w3.org/1999/xlink" x="0px" y="0px"
	 viewBox="0 0 128 128" style="enable-background:new 0 0 128 128;" xml:space="preserve">
<style type="text/css">
	.st0{fill:#E2001A;}
	.st1{fill:#FFFFFF;}
</style>
<circle class="st0" cx="64" cy="64" r="64"/>
<g>
	<path class="st1" d="M88.4,60.5c9.6,0,17.5-7.8,17.5-17.5s-7.8-17.5-17.5-17.5S71,33.4,71,43.1S78.8,60.5,88.4,60.5z M88.4,32.6
		c5.8,0,10.5,4.7,10.5,10.5s-4.7,10.5-10.5,10.5S78,48.8,78,43.1S82.7,32.6,88.4,32.6z"/>
	<path class="st1" d="M104.9,73.5c-0.7-1.5-2.4-2.2-4-1.8l-26.7,6.7l-8.5-4.2l3.6-3.6c1.4-1.4,1.4-3.6,0-4.9l-3.5-3.5
		c-1-1-2.5-1.3-3.8-0.8L46,67.8v24.7L73.5,96c0.1,0,0.3,0,0.4,0c0.4,0,0.7-0.1,1.1-0.2l31.4-10.5c1-0.3,1.7-1,2.1-2
		c0.4-0.9,0.3-2-0.1-2.9L104.9,73.5z"/>
	<path class="st1" d="M32.6,64.6h-7c-1.9,0-3.5,1.6-3.5,3.5v24.4c0,1.9,1.6,3.5,3.5,3.5h7c1.9,0,3.5-1.6,3.5-3.5V68.1
		C36.1,66.1,34.5,64.6,32.6,64.6z"/>
</g>
</svg>
