<?xml version="1.0" encoding="UTF-8"?>
<svg width="29px" height="40px" viewBox="0 0 29 40" version="1.1" xmlns="http://www.w3.org/2000/svg" xmlns:xlink="http://www.w3.org/1999/xlink">
    <!-- Generator: Sketch 46.2 (44496) - http://www.bohemiancoding.com/sketch -->
    <title>icon-restaurant</title>
    <desc>Created with Sketch.</desc>
    <defs></defs>
    <g id="New-Icons---no-artboard" stroke="none" stroke-width="1" fill="none" fill-rule="evenodd">
        <g id="icon-restaurant" transform="translate(-19.000000, -12.000000)" fill-rule="nonzero" fill="#000000">
            <g transform="translate(19.000000, 12.500000)" id="Shape">
                <path d="M22.7,0.85 C22.15,0.3 21.35,0.15 20.6,0.45 C19.9,0.75 19.4,1.45 19.4,2.2 L19.4,38.7 L23.25,38.7 L23.25,27.2 L27.1,27.2 C28.15,27.2 29,26.35 29,25.3 C29,7.4 22.95,1.1 22.7,0.85 Z"></path>
                <path d="M11.7,11.8 C11.7,13.2 10.9,14.45 9.8,15.1 L9.8,0.3 L5.95,0.3 L5.95,15.15 C4.8,14.5 4.05,13.25 4.05,11.85 L4.05,0.35 L0.2,0.35 L0.2,11.85 C0.2,15.4 2.65,18.4 5.95,19.25 L5.95,38.7 L9.8,38.7 L9.8,19.25 C13.1,18.4 15.55,15.4 15.55,11.85 L15.55,0.35 L11.7,0.35 L11.7,11.8 L11.7,11.8 Z"></path>
            </g>
        </g>
    </g>
</svg>