<?xml version="1.0" encoding="utf-8"?>
<!-- Generator: Adobe Illustrator 21.0.2, SVG Export Plug-In . SVG Version: 6.00 Build 0)  -->
<svg version="1.1" id="Ebene_1" xmlns="http://www.w3.org/2000/svg" xmlns:xlink="http://www.w3.org/1999/xlink" x="0px" y="0px"
	 viewBox="0 0 128 128" style="enable-background:new 0 0 128 128;" xml:space="preserve">
<style type="text/css">
	.st0{fill:#E2001A;}
	.st1{fill:#FFFFFF;}
</style>
<circle class="st0" cx="64" cy="64" r="64"/>
<g>
	<path class="st1" d="M71.7,92.8c0,1.1-0.9,1.9-1.9,1.9s-1.9-0.9-1.9-1.9V75.5h-7.7v17.3c0,5.3,4.3,9.6,9.6,9.6s9.6-4.3,9.6-9.6
		v-1.9h-7.7V92.8z"/>
	<path class="st1" d="M67.9,27.1l0-4c0-2.1-1.7-3.8-3.8-3.8c-2.1,0-3.8,1.7-3.8,3.8l0,4C40.9,29,25.8,45.2,25.6,65
		c5.1-4.6,11.8-7.4,19.2-7.4c7.4,0,14.1,2.8,19.2,7.4c5.1-4.6,11.8-7.4,19.2-7.4c7.4,0,14.1,2.8,19.2,7.4
		C102.2,45.2,87.2,29,67.9,27.1z"/>
</g>
</svg>
