<svg xmlns="http://www.w3.org/2000/svg" width="46" height="41" viewBox="0 0 46 41">
  <g fill="none" transform="translate(-9 -9)">
    <circle cx="32" cy="32" r="32"/>
    <g fill="#000" transform="translate(9.5 9.5)">
      <path d="M18.8 28.4L18.8 22.15C15.65 23.5 13.25 26.85 13.25 30.7 13.25 35.8 17.4 39.95 22.5 39.95 27.6 39.95 31.75 35.8 31.75 30.7 31.75 25.95 31.75 21.45 22.5 12.2 25.6 24.55 18.8 28.4 18.8 28.4zM18.1 11.2L16.6 7.8C12 9.85 8.75 14.05 7.95 19L11.6 19.6C12.2 15.9 14.7 12.7 18.1 11.2zM28.25 7.85L26.75 11.25C30.15 12.75 32.65 15.95 33.25 19.65L36.9 19.05C36.15 14.05 32.9 9.85 28.25 7.85z"/>
      <path d="M28.55.1L27.55 3.65C35.45 5.9 41 13.2 41 21.45L44.7 21.45C44.7 11.55 38.05 2.8 28.55.1zM17.45 3.65L16.45.1C6.95 2.8.3 11.55.3 21.45L4 21.45C4 13.2 9.55 5.9 17.45 3.65z"/>
    </g>
  </g>
</svg>
