<?xml version="1.0" encoding="utf-8"?>
<!-- Generator: Adobe Illustrator 21.0.2, SVG Export Plug-In . SVG Version: 6.00 Build 0)  -->
<svg version="1.1" id="Ebene_1" xmlns="http://www.w3.org/2000/svg" xmlns:xlink="http://www.w3.org/1999/xlink" x="0px" y="0px"
	 viewBox="0 0 128 128" style="enable-background:new 0 0 128 128;" xml:space="preserve">
<style type="text/css">
	.st0{fill:#E2001A;}
	.st1{fill:#FFFFFF;}
</style>
<circle class="st0" cx="64" cy="64" r="64"/>
<g>
	<circle class="st1" cx="90.5" cy="86.6" r="9.4"/>
	<circle class="st1" cx="43.5" cy="86.6" r="9.4"/>
	<path class="st1" d="M85.8,30.3c0-2.6-2.1-4.7-4.7-4.7H67c-2.6,0-4.7,2.1-4.7,4.7V35h23.5V30.3z"/>
	<path class="st1" d="M104.5,58.5l-9.4-18.8H52.9l-9.4,18.8H24.7c-5.2,0-9.4,4.2-9.4,9.4v14.1c0,2.6,2.1,4.7,4.7,4.7h7.3
		c0-9,7.3-16.2,16.2-16.2s16.2,7.3,16.2,16.2h14.5c0-9,7.3-16.2,16.2-16.2c9,0,16.2,7.3,16.2,16.2h2.6c2.6,0,4.7-2.1,4.7-4.7V67.8
		C113.9,62.7,109.7,58.5,104.5,58.5z M89.2,58.5H52.9l4.7-9.4h31.6V58.5z"/>
</g>
</svg>
