<?xml version="1.0" encoding="utf-8"?>
<!-- Generator: Adobe Illustrator 21.0.2, SVG Export Plug-In . SVG Version: 6.00 Build 0)  -->
<svg version="1.1" id="Ebene_1" xmlns="http://www.w3.org/2000/svg" xmlns:xlink="http://www.w3.org/1999/xlink" x="0px" y="0px"
	 viewBox="0 0 128 128" style="enable-background:new 0 0 128 128;" xml:space="preserve">
<style type="text/css">
	.st0{fill:#E2001A;}
	.st1{fill:#FFFFFF;}
</style>
<circle class="st0" cx="64" cy="64" r="64"/>
<g>
	<path class="st1" d="M88.3,25.6c-7.8,0-14.1,6.3-14.1,14.1h17.6v13.6c6.1-1.6,10.6-7,10.6-13.6C102.4,31.9,96.1,25.6,88.3,25.6z"/>
	<path class="st1" d="M84.8,43.2H35.5c-1.4,0-2.7,0.9-3.3,2.2c-0.5,1.3-0.2,2.8,0.8,3.8l23.6,23.6v22.5H46.1v7h28.2v-7H63.7V72.8
		l23.6-23.6c1-1,1.3-2.5,0.8-3.8C87.5,44.1,86.2,43.2,84.8,43.2z"/>
	<path class="st1" d="M44.6,39.7h10L38.6,23.8c-0.7-0.7-1.6-1-2.5-1H25.6v7h9.1L44.6,39.7z"/>
</g>
</svg>
