<svg xmlns="http://www.w3.org/2000/svg" width="26" height="44" viewBox="0 0 26 44">
  <g transform="translate(-19 -10)">
    <path d="M27.75 14.9C28.95 14.9 29.9 15.85 29.9 17.05L29.9 32 34.15 32 34.15 17.05C34.15 15.85 35.1 14.9 36.3 14.9 37.5 14.9 38.45 15.85 38.45 17.05L38.45 32 42.7 32 42.7 17.05C42.7 13.5 39.85 10.65 36.3 10.65 34.65 10.65 33.15 11.3 32.05 12.3 30.9 11.3 29.45 10.65 27.8 10.65 24.25 10.65 21.4 13.5 21.4 17.05L21.4 32 25.65 32 25.65 17.05C25.6 15.85 26.55 14.9 27.75 14.9zM42.65 34.15L21.35 34.15C20.15 34.15 19.2 35.1 19.2 36.3L19.2 38.45C19.2 44.8 23.8 50.05 29.85 51.05L29.85 53.4 34.1 53.4 34.1 51C40.15 50 44.75 44.7 44.75 38.4L44.75 36.25C44.8 35.1 43.85 34.15 42.65 34.15z"/>
  </g>
</svg>
