<svg xmlns="http://www.w3.org/2000/svg" width="44" height="39" viewBox="0 0 44 39">
  <g fill="none" transform="translate(-9 -12)">
    <circle cx="32" cy="32" r="32"/>
    <g fill="#000" transform="translate(9.5 12.5)">
      <path d="M41.25 1.9C39.1-.25 35.65-.25 33.5 1.9L25.8 9.65 22.7 6.55C21 4.85 18.25 4.85 16.5 6.55L13.4 9.65 33.5 29.7 36.6 26.6C38.3 24.9 38.3 22.15 36.6 20.4L33.5 17.35 41.25 9.6C43.4 7.5 43.4 4.05 41.25 1.9zM38.15 8.1C37.3 8.95 35.9 8.95 35.05 8.1 34.2 7.25 34.2 5.85 35.05 5 35.9 4.15 37.3 4.15 38.15 5 39 5.85 39 7.25 38.15 8.1zM8.8 17.35C5.7 20.45 1.95 19.75 1.05 18.9.2 19.75.2 21.15 1.05 22L15 35.9C19.65 40.55 24.25 35.9 24.25 35.9L30.45 29.7 13.45 12.7 8.8 17.35z"/>
    </g>
  </g>
</svg>
