<?xml version="1.0" encoding="utf-8"?>
<!-- Generator: Adobe Illustrator 21.0.2, SVG Export Plug-In . SVG Version: 6.00 Build 0)  -->
<svg version="1.1" id="Ebene_1" xmlns="http://www.w3.org/2000/svg" xmlns:xlink="http://www.w3.org/1999/xlink" x="0px" y="0px"
	 viewBox="0 0 128 128" style="enable-background:new 0 0 128 128;" xml:space="preserve">
<style type="text/css">
	.st0{fill:#E2001A;}
	.st1{fill:#FFFFFF;}
</style>
<circle class="st0" cx="64" cy="64" r="64"/>
<g>
	<path class="st1" d="M51.2,34.1c0-2.4,1.9-4.3,4.3-4.3c2.4,0,4.3,1.9,4.3,4.3V64h8.5V34.1c0-2.4,1.9-4.3,4.3-4.3s4.3,1.9,4.3,4.3
		V64h8.5V34.1c0-7.1-5.7-12.8-12.8-12.8c-3.3,0-6.3,1.3-8.5,3.3c-2.3-2-5.2-3.3-8.5-3.3c-7.1,0-12.8,5.7-12.8,12.8V64h8.5V34.1z"/>
	<path class="st1" d="M85.3,68.3H42.7c-2.4,0-4.3,1.9-4.3,4.3v4.3c0,12.7,9.2,23.2,21.3,25.2v4.7h8.5V102
		c12.1-2,21.3-12.6,21.3-25.2v-4.3C89.6,70.2,87.7,68.3,85.3,68.3z"/>
</g>
</svg>
