<?xml version="1.0" encoding="utf-8"?>
<!-- Generator: Adobe Illustrator 21.0.2, SVG Export Plug-In . SVG Version: 6.00 Build 0)  -->
<svg version="1.1" id="Ebene_1" xmlns="http://www.w3.org/2000/svg" xmlns:xlink="http://www.w3.org/1999/xlink" x="0px" y="0px"
	 viewBox="0 0 128 128" style="enable-background:new 0 0 128 128;" xml:space="preserve">
<style type="text/css">
	.st0{fill:#E2001A;}
	.st1{fill:#FFFFFF;}
</style>
<circle class="st0" cx="64" cy="64" r="64"/>
<g>
	<path class="st1" d="M88,44.8c-6.3,0-11.8,3.1-15.3,7.8c-2.4-1.8-5.4-3-8.7-3c-3.3,0-6.2,1.1-8.7,3c-3.5-4.7-9-7.8-15.3-7.8
		c-10.6,0-19.2,8.6-19.2,19.2c0,10.6,8.6,19.2,19.2,19.2S59.2,74.6,59.2,64c0-2.6,2.2-4.8,4.8-4.8c2.6,0,4.8,2.2,4.8,4.8
		c0,10.6,8.6,19.2,19.2,19.2s19.2-8.6,19.2-19.2C107.2,53.4,98.6,44.8,88,44.8z M40,73.6c-5.3,0-9.6-4.3-9.6-9.6
		c0-5.3,4.3-9.6,9.6-9.6s9.6,4.3,9.6,9.6C49.6,69.3,45.3,73.6,40,73.6z M88,73.6c-5.3,0-9.6-4.3-9.6-9.6c0-5.3,4.3-9.6,9.6-9.6
		s9.6,4.3,9.6,9.6C97.6,69.3,93.3,73.6,88,73.6z"/>
	<path class="st1" d="M6.4,64H16c0-4.2,1.1-8.4,3.2-12l-8.3-4.8C8,52.3,6.4,58.1,6.4,64z"/>
	<path class="st1" d="M117.1,47.2l-8.3,4.8c2.1,3.6,3.2,7.8,3.2,12h9.6C121.6,58.1,120,52.3,117.1,47.2z"/>
</g>
</svg>
