<?xml version="1.0" encoding="utf-8"?>
<!-- Generator: Adobe Illustrator 21.0.2, SVG Export Plug-In . SVG Version: 6.00 Build 0)  -->
<svg version="1.1" id="Ebene_1" xmlns="http://www.w3.org/2000/svg" xmlns:xlink="http://www.w3.org/1999/xlink" x="0px" y="0px"
	 viewBox="0 0 128 128" style="enable-background:new 0 0 128 128;" xml:space="preserve">
<style type="text/css">
	.st0{fill:#E2001A;}
	.st1{fill:#FFFFFF;}
</style>
<circle class="st0" cx="64" cy="64" r="64"/>
<path class="st1" d="M48.9,48.7c4.1-2,6.9-6.1,6.9-10.9c0-6.7-5.5-12.2-12.2-12.2s-12.2,5.5-12.2,12.2c0,4.8,2.8,8.9,6.9,10.9
	c-8.6,2.3-15,10.1-15,19.5v8.1c0,2.2,1.8,4.1,4.1,4.1h4.1v12.2c0,2.2,1.8,4.1,4.1,4.1h16.2c2.2,0,4.1-1.8,4.1-4.1V80.3h4.1
	c2.2,0,4.1-1.8,4.1-4.1v-8.1C63.9,58.8,57.5,51,48.9,48.7z"/>
<path class="st1" d="M93.3,73.9c3-2.2,5.1-5.8,5.1-9.8c0-6.7-5.5-12.2-12.2-12.2S74,57.4,74,64.1c0,4,2,7.6,5.1,9.8
	C73.7,76.6,70,82,70,88.4v4.1c0,2.2,1.8,4.1,4.1,4.1h24.3c2.2,0,4.1-1.8,4.1-4.1v-4.1C102.4,82,98.7,76.6,93.3,73.9z"/>
</svg>
