<svg xmlns="http://www.w3.org/2000/svg" width="42" height="39" viewBox="0 0 42 39">
  <g fill="none" transform="translate(-11 -9)">
    <circle cx="32" cy="32" r="32"/>
    <g fill="#000" transform="translate(11 9.5)">
      <path d="M8.8,16.05 L8.8,6.4 L19.25,18.05 L19.25,26.3 L36.7,26.3 L36.7,21.05 C36.7,20.1 35.9,19.3 34.95,19.3 L31.45,19.3 L31.45,12.3 C31.45,10.35 29.9,8.8 27.95,8.8 L22.75,8.8 C20.8,8.8 19.25,10.35 19.25,12.3 L19.25,12.8 L8.35,0.7 C7.85,0.15 7.1,3.33066907e-16 6.45,0.25 C5.8,0.5 5.35,1.15 5.35,1.9 L5.35,16.1 C2.35,16.9 0.1,19.6 0.1,22.85 C0.1,26.7 3.2,29.85 7.1,29.85 C11,29.85 14.1,26.75 14.1,22.85 C14,19.55 11.8,16.85 8.8,16.05 Z M22.75,12.3 L28,12.3 L28,17.55 L22.75,17.55 L22.75,12.3 Z"/>
      <path d="M36.7,28.05 L19.25,28.05 C16.35,28.05 14,30.4 14,33.3 C14,36.15 16.35,38.5 19.25,38.5 L36.7,38.5 C39.6,38.5 41.95,36.15 41.95,33.25 C41.95,30.35 39.6,28.05 36.7,28.05 Z M19.25,35.9 C17.8,35.9 16.65,34.75 16.65,33.3 C16.65,31.85 17.8,30.7 19.25,30.7 C20.7,30.7 21.85,31.85 21.85,33.3 C21.85,34.75 20.7,35.9 19.25,35.9 Z M28,35.9 C26.55,35.9 25.4,34.75 25.4,33.3 C25.4,31.85 26.55,30.7 28,30.7 C29.45,30.7 30.6,31.85 30.6,33.3 C30.6,34.75 29.45,35.9 28,35.9 Z M36.7,35.9 C35.25,35.9 34.1,34.75 34.1,33.3 C34.1,31.85 35.25,30.7 36.7,30.7 C38.15,30.7 39.3,31.85 39.3,33.3 C39.3,34.75 38.15,35.9 36.7,35.9 Z"/>
    </g>
  </g>
</svg>
