<svg xmlns="http://www.w3.org/2000/svg" width="40" height="40" viewBox="0 0 40 40">
  <g fill="none" transform="translate(-12 -12)">
    <circle cx="32" cy="32" r="32"/>
    <g fill="#000" transform="translate(12.5 12.5)">
      <circle cx="22.7" cy="11.5" r="4.8"/>
      <path d="M6.7,0.3 L6.7,19.65 C7.2,19.6 7.75,19.5 8.3,19.5 C8.85,19.5 9.4,19.55 9.95,19.65 C11.35,18.25 13.1,17.2 15.1,16.7 L9.9,11.5 L9.9,3.5 L27.5,3.5 L35.5,11.5 L35.5,19.5 L25.75,19.5 C26.7,20.4 27.45,21.5 28.05,22.7 L38.75,22.7 L38.75,0.3 L6.7,0.3 Z"/>
      <path d="M17.9,19.5 C15.05,19.5 12.55,21 11.15,23.25 C10.25,22.9 9.3,22.7 8.3,22.7 C3.9,22.7 0.3,26.3 0.3,30.7 C0.3,35.1 3.9,38.7 8.3,38.7 C11.15,38.7 13.6,37.2 15.05,34.95 C15.95,35.3 16.9,35.5 17.9,35.5 C22.3,35.5 25.9,31.9 25.9,27.5 C25.9,23.1 22.3,19.5 17.9,19.5 Z M8.3,35.5 C5.65,35.5 3.5,33.35 3.5,30.7 C3.5,28.05 5.65,25.9 8.3,25.9 C8.9,25.9 9.5,26 10.05,26.25 C10,26.65 9.9,27.1 9.9,27.5 C9.9,29.75 10.85,31.8 12.35,33.25 C11.5,34.6 10,35.5 8.3,35.5 Z M17.9,32.3 C15.25,32.3 13.1,30.15 13.1,27.5 C13.1,24.85 15.25,22.7 17.9,22.7 C20.55,22.7 22.7,24.85 22.7,27.5 C22.7,30.15 20.55,32.3 17.9,32.3 Z"/>
    </g>
  </g>
</svg>
