<svg xmlns="http://www.w3.org/2000/svg" width="46" height="45" viewBox="0 0 46 45">
  <g fill="none" transform="translate(-9 -8)">
    <circle cx="32" cy="32" r="32"/>
    <path fill="#000" d="M53.15,18.65 L42.65,8.1 L39.65,11.1 L47.15,18.6 L44.15,21.6 L36.65,14.1 L33.65,17.1 L41.15,24.6 L38.15,27.6 L30.65,20.1 L27.65,23.1 L35.15,30.6 L32.15,33.6 L24.65,26.1 L21.65,29.1 L29.15,36.6 L26.15,39.6 L18.65,32.1 L15.65,35.1 L23.15,42.6 L20.15,45.6 L12.65,38.1 L9.65,41.1 L20.2,51.65 C21.85,53.3 24.55,53.3 26.2,51.65 L53.3,24.55 C54.8,23 54.8,20.3 53.15,18.65 Z"/>
  </g>
</svg>
