<?xml version="1.0" encoding="utf-8"?>
<!-- Generator: Adobe Illustrator 21.0.2, SVG Export Plug-In . SVG Version: 6.00 Build 0)  -->
<svg version="1.1" id="Ebene_1" xmlns="http://www.w3.org/2000/svg" xmlns:xlink="http://www.w3.org/1999/xlink" x="0px" y="0px"
	 viewBox="0 0 128 128" style="enable-background:new 0 0 128 128;" xml:space="preserve">
<style type="text/css">
	.st0{fill:#E2001A;}
	.st1{fill:#FFFFFF;}
</style>
<circle class="st0" cx="64" cy="64" r="64"/>
<g>
	<path class="st1" d="M106.5,48.2L65.8,27.8c-1.1-0.6-2.5-0.6-3.6,0L21.5,48.2c-0.8,0.4-1.4,1.1-1.8,1.9c-0.2,0.5-0.4,1.3-0.4,1.8
		v23.5c0,2.2,1.8,4.1,4.1,4.1s4.1-1.8,4.1-4.1V56.6l36.7,15.3l42.2-16.3c1.5-0.6,2.5-2,2.6-3.6C108.9,50.4,108,48.9,106.5,48.2z"/>
	<path class="st1" d="M64,80.3c-0.5,0-1.1-0.1-1.6-0.3L35.5,68.8v12.3c0,1.5,0.9,3,2.3,3.6c7,3.5,14.2,7.8,26.3,7.8
		c12.1,0,19.3-4.3,26.3-7.8c1.4-0.7,2.3-2.1,2.3-3.6V69.7l-27,10.4C65,80.2,64.5,80.3,64,80.3z"/>
	<path class="st1" d="M23.3,84.4c-2.2,0-4.1,1.8-4.1,4.1v8.1c0,2.3,1.8,4.1,4.1,4.1s4.1-1.8,4.1-4.1v-8.1
		C27.3,86.2,25.5,84.4,23.3,84.4z"/>
</g>
</svg>
