<?xml version="1.0" encoding="utf-8"?>
<!-- Generator: Adobe Illustrator 21.0.2, SVG Export Plug-In . SVG Version: 6.00 Build 0)  -->
<svg version="1.1" id="Ebene_1" xmlns="http://www.w3.org/2000/svg" xmlns:xlink="http://www.w3.org/1999/xlink" x="0px" y="0px"
	 viewBox="0 0 128 128" style="enable-background:new 0 0 128 128;" xml:space="preserve">
<style type="text/css">
	.st0{fill:#E2001A;}
	.st1{fill:#FFFFFF;}
</style>
<circle class="st0" cx="64" cy="64" r="64"/>
<g>
	<circle class="st1" cx="84" cy="81.6" r="8"/>
	<path class="st1" d="M51.9,70.3c0-0.2,0.1-0.4,0.1-0.7v-28c0-2.2-1.8-4-4-4h-8c-8.8,0-16,7.2-16,16v24c0,2.2,1.8,4,4,4h8
		c0-6.6,5.4-12,12-12C49.4,69.6,50.6,69.9,51.9,70.3z M44,57.6H32v-8h12V57.6z"/>
	<circle class="st1" cx="48" cy="81.6" r="8"/>
	<path class="st1" d="M96,25.6H64c-4.4,0-8,3.6-8,8v39.1c2.4,2.2,4,5.3,4,8.9h12c0-6.6,5.4-12,12-12c6.6,0,12,5.4,12,12h4
		c2.2,0,4-1.8,4-4v-44C104,29.2,100.4,25.6,96,25.6z"/>
</g>
</svg>
