<?xml version="1.0" encoding="UTF-8"?>
<svg width="40px" height="39px" viewBox="0 0 40 39" version="1.1" xmlns="http://www.w3.org/2000/svg" xmlns:xlink="http://www.w3.org/1999/xlink">
    <!-- Generator: Sketch 46.2 (44496) - http://www.bohemiancoding.com/sketch -->
    <title>icon-commerce</title>
    <desc>Created with Sketch.</desc>
    <defs></defs>
    <g id="New-Icons---no-artboard" stroke="none" stroke-width="1" fill="none" fill-rule="evenodd">
        <g id="icon-commerce" transform="translate(-12.000000, -9.000000)" fill-rule="nonzero" fill="#000000">
            <g transform="translate(12.500000, 9.500000)" id="Shape">
                <path d="M29.1,2 C28.05,2 27.15,2.4 26.45,3.1 C25.45,1.3 23.6,0.1 21.45,0.1 C19.3,0.1 17.4,1.3 16.45,3.1 C15.75,2.45 14.85,2 13.8,2 C11.7,2 9.95,3.7 9.95,5.85 C9.95,8 11.65,9.7 13.8,9.7 C14.85,9.7 15.75,9.3 16.45,8.6 C17.45,10.4 19.3,11.6 21.45,11.6 C23.6,11.6 25.5,10.4 26.45,8.6 C27.15,9.25 28.05,9.7 29.1,9.7 C31.2,9.7 32.95,8 32.95,5.85 C32.95,3.7 31.2,2 29.1,2 Z"></path>
                <path d="M36.8,19.3 L8,19.3 L8,12.6 C8,12 7.7,11.45 7.25,11.05 L3.4,8.15 C2.8,7.7 2.05,7.65 1.4,7.95 C0.75,8.3 0.35,8.95 0.35,9.65 L0.35,36.55 C0.35,37.6 1.2,38.45 2.25,38.45 L36.8,38.45 C37.85,38.45 38.7,37.6 38.7,36.55 L38.7,21.2 C38.7,20.15 37.85,19.3 36.8,19.3 Z M15.65,34.65 L9.9,34.65 L9.9,30.8 L15.65,30.8 L15.65,34.65 Z M15.65,27 L9.9,27 L9.9,23.15 L15.65,23.15 L15.65,27 Z M25.25,34.65 L19.5,34.65 L19.5,30.8 L25.25,30.8 L25.25,34.65 Z M25.25,27 L19.5,27 L19.5,23.15 L25.25,23.15 L25.25,27 Z M34.85,34.65 L29.1,34.65 L29.1,30.8 L34.85,30.8 L34.85,34.65 Z M34.85,27 L29.1,27 L29.1,23.15 L34.85,23.15 L34.85,27 Z"></path>
            </g>
        </g>
    </g>
</svg>