<?xml version="1.0" encoding="utf-8"?>
<!-- Generator: Adobe Illustrator 22.1.0, SVG Export Plug-In . SVG Version: 6.00 Build 0)  -->
<svg version="1.1" id="Ebene_1" xmlns="http://www.w3.org/2000/svg" xmlns:xlink="http://www.w3.org/1999/xlink" x="0px" y="0px"
	 viewBox="0 0 128 128" style="enable-background:new 0 0 128 128;" xml:space="preserve">
<style type="text/css">
	.st0{clip-path:url(#SVGID_2_);fill:#E30613;}
</style>
<g>
	<defs>
		<rect id="SVGID_1_" width="128" height="128"/>
	</defs>
	<clipPath id="SVGID_2_">
		<use xlink:href="#SVGID_1_"  style="overflow:visible;"/>
	</clipPath>
	<path class="st0" d="M64,0C28.7,0,0,28.7,0,64c0,35.3,28.7,64,64,64c35.3,0,64-28.7,64-64C128,28.7,99.3,0,64,0z M78.6,22
		c6,0,8.8,6.2,8.8,11.5c0,6.6-4.6,16.1-12.2,16.1c-6,0-8.8-6.2-8.8-11.5C66.4,31.6,71,22,78.6,22z M49.4,22
		c7.6,0,12.2,9.6,12.2,16.1c0,5.2-2.7,11.5-8.8,11.5c-7.6,0-12.2-9.6-12.2-16.1C40.6,28.2,43.3,22,49.4,22z M25,54.1
		c0-4.5,2.4-9.3,7.5-9.3c7.5,0,13,9.2,13,16c0,4.5-2.4,9.3-7.5,9.3C30.5,70,25,60.9,25,54.1z M81.3,94C75.1,94,70,89.8,64,89.8
		c-6.3,0-11.6,4.2-18.4,4.2C41,94,37,92.4,37,87.1C37,76,52.5,59.5,64,59.5S91,76,91,87.1C91,93.1,86.1,94,81.3,94z M90,70
		c-5.2,0-7.5-4.7-7.5-9.3c0-6.8,5.5-16,13-16c5.1,0,7.5,4.8,7.5,9.3C103,60.9,97.5,70,90,70z"/>
</g>
</svg>
