<?xml version="1.0" encoding="utf-8"?>
<!-- Generator: Adobe Illustrator 21.0.2, SVG Export Plug-In . SVG Version: 6.00 Build 0)  -->
<svg version="1.1" id="Ebene_1" xmlns="http://www.w3.org/2000/svg" xmlns:xlink="http://www.w3.org/1999/xlink" x="0px" y="0px"
	 viewBox="0 0 128 128" style="enable-background:new 0 0 128 128;" xml:space="preserve">
<style type="text/css">
	.st0{fill:#E2001A;}
	.st1{fill:#FFFFFF;}
</style>
<circle class="st0" cx="64" cy="64" r="64"/>
<g>
	
		<rect x="27.4" y="94.5" transform="matrix(0.7071 -0.7071 0.7071 0.7071 -60.5543 51.3411)" class="st1" width="8.6" height="8.6"/>
	<path class="st1" d="M34.7,77.4c-1.7-1.7-4.4-1.7-6.1,0c-1.7,1.7-1.7,4.4,0,6.1l18.3,18.3c1.7,1.7,4.4,1.7,6.1,0
		c0.8-0.8,1.3-1.9,1.3-3c0-1.1-0.5-2.2-1.3-3L34.7,77.4z"/>
	<rect x="94.5" y="27.4" transform="matrix(0.7071 -0.7071 0.7071 0.7071 6.5148 79.1213)" class="st1" width="8.6" height="8.6"/>
	<path class="st1" d="M83.5,28.6c-1.7-1.7-4.4-1.7-6.1,0c-0.8,0.8-1.3,1.9-1.3,3c0,1.1,0.5,2.2,1.3,3L95.7,53c1.7,1.7,4.4,1.7,6.1,0
		c1.7-1.7,1.7-4.4,0-6.1L83.5,28.6z"/>
	<path class="st1" d="M71.3,34.7c-1.7-1.7-4.4-1.7-6.1,0l-3,3c-1.7,1.7-1.7,4.4,0,6.1l9.1,9.1L53,71.3l-9.1-9.1
		c-1.7-1.7-4.4-1.7-6.1,0l-3,3c-0.8,0.8-1.3,1.9-1.3,3c0,1.1,0.5,2.2,1.3,3l24.4,24.4c0.8,0.8,1.9,1.3,3,1.3c1.1,0,2.2-0.5,3-1.3
		l3-3c1.7-1.7,1.7-4.4,0-6.1l-9.1-9.1l18.3-18.3l9.1,9.1c1.7,1.7,4.4,1.7,6.1,0l3-3c0.8-0.8,1.3-1.9,1.3-3c0-1.1-0.5-2.2-1.3-3
		L71.3,34.7z"/>
</g>
</svg>
