<svg xmlns="http://www.w3.org/2000/svg" width="40" height="36" viewBox="0 0 40 36">
  <g fill="none" transform="translate(-12 -11)">
    <circle cx="32" cy="32" r="32"/>
    <path fill="#000" d="M47.35,19.2 L39.7,19.2 L39.7,13.45 C39.7,12.4 38.85,11.55 37.8,11.55 L26.3,11.55 C25.25,11.55 24.4,12.4 24.4,13.45 L24.4,19.2 L16.65,19.2 C14.55,19.2 12.8,20.9 12.8,23.05 L12.8,42.25 C12.8,44.35 14.5,46.1 16.65,46.1 L47.35,46.1 C49.45,46.1 51.2,44.4 51.2,42.25 L51.2,23.05 C51.2,20.9 49.5,19.2 47.35,19.2 Z M28.15,15.35 L35.85,15.35 L35.85,19.2 L28.15,19.2 L28.15,15.35 Z M39.7,34.55 L33.9,34.55 L33.9,40.3 L30.05,40.3 L30.05,34.55 L24.3,34.55 L24.3,30.7 L30.05,30.7 L30.05,24.95 L33.9,24.95 L33.9,30.7 L39.65,30.7 L39.65,34.55 L39.7,34.55 Z"/>
  </g>
</svg>
