<?xml version="1.0" encoding="utf-8"?>
<!-- Generator: Adobe Illustrator 21.0.2, SVG Export Plug-In . SVG Version: 6.00 Build 0)  -->
<svg version="1.1" id="Ebene_1" xmlns="http://www.w3.org/2000/svg" xmlns:xlink="http://www.w3.org/1999/xlink" x="0px" y="0px"
	 viewBox="0 0 128 128" style="enable-background:new 0 0 128 128;" xml:space="preserve">
<style type="text/css">
	.st0{fill:#E2001A;}
	.st1{fill:#FFFFFF;}
</style>
<circle class="st0" cx="64" cy="64" r="64"/>
<g>
	<path class="st1" d="M83.2,23c-2.1,0-3.9,0.8-5.3,2.2c-2-3.6-5.7-6-10-6c-4.3,0-8.1,2.4-10,6c-1.4-1.3-3.2-2.2-5.3-2.2
		c-4.2,0-7.7,3.4-7.7,7.7s3.4,7.7,7.7,7.7c2.1,0,3.9-0.8,5.3-2.2c2,3.6,5.7,6,10,6c4.3,0,8.1-2.4,10-6c1.4,1.3,3.2,2.2,5.3,2.2
		c4.2,0,7.7-3.4,7.7-7.7S87.4,23,83.2,23z"/>
	<path class="st1" d="M98.6,57.6H41V44.2c0-1.2-0.6-2.3-1.5-3.1l-7.7-5.8c-1.2-0.9-2.7-1-4-0.4c-1.3,0.7-2.1,2-2.1,3.4v53.8
		c0,2.1,1.7,3.8,3.8,3.8h69.1c2.1,0,3.8-1.7,3.8-3.8V61.4C102.4,59.3,100.7,57.6,98.6,57.6z M56.3,88.3H44.8v-7.7h11.5V88.3z
		 M56.3,73H44.8v-7.7h11.5V73z M75.5,88.3H64v-7.7h11.5V88.3z M75.5,73H64v-7.7h11.5V73z M94.7,88.3H83.2v-7.7h11.5V88.3z M94.7,73
		H83.2v-7.7h11.5V73z"/>
</g>
</svg>
