<svg xmlns="http://www.w3.org/2000/svg" width="40" height="32" viewBox="0 0 40 32">
  <g fill="none" transform="translate(-12 -16)">
    <circle cx="32" cy="32" r="32"/>
    <g fill="#000" transform="translate(12.5 16)">
      <circle cx="9.3" cy="27.55" r="3.7"/>
      <circle cx="18.5" cy="27.55" r="3.7"/>
      <circle cx="27.65" cy="27.55" r="3.7"/>
      <rect width="11.05" height="1.85" x="3.8"/>
      <path d="M20.3,1.85 L20.3,5.5 L22.15,5.5 L22.15,11 L12.95,11 L14.8,3.65 L3.8,3.65 L5.65,11 L0.15,16.5 L0.15,22 L4.1,25.95 C4.8,23.7 6.85,22 9.35,22 C11.25,22 12.95,23 13.95,24.45 C14.95,22.95 16.6,22 18.55,22 C20.5,22 22.15,23 23.15,24.45 C24.15,22.95 25.8,22 27.75,22 C30.8,22 33.25,24.45 33.25,27.5 L36.95,27.5 L36.95,5.5 L38.8,5.5 L38.8,1.8 L20.3,1.8 L20.3,1.85 Z M33.2,12.85 L25.85,12.85 L25.85,7.35 L33.2,7.35 L33.2,12.85 Z"/>
    </g>
  </g>
</svg>
