<svg xmlns="http://www.w3.org/2000/svg" width="40" height="36" viewBox="0 0 40 36">
  <g fill="none" transform="translate(-12 -12)">
    <circle cx="32" cy="32" r="32"/>
    <g fill="#000" transform="translate(12 12.5)">
      <path d="M19.65,12.05 C15.35,12.05 11.85,15.55 11.85,19.85 C11.85,24.15 15.35,27.65 19.65,27.65 C23.95,27.65 27.45,24.15 27.45,19.85 C27.45,15.55 23.95,12.05 19.65,12.05 Z"/>
      <path d="M35.3,6.15 L31.5,6.15 C30.2,6.15 28.95,5.5 28.25,4.4 L26.65,2 C25.9,0.9 24.7,0.25 23.4,0.25 L15.85,0.25 C14.55,0.25 13.3,0.9 12.6,2 L11,4.45 C10.25,5.55 9.05,6.2 7.75,6.2 L4,6.2 C1.85,6.2 0.1,7.95 0.1,10.1 L0.1,31.6 C0.1,33.75 1.85,35.5 4,35.5 L35.3,35.5 C37.45,35.5 39.2,33.75 39.2,31.6 L39.2,10.1 C39.2,7.9 37.45,6.15 35.3,6.15 Z M19.65,31.6 C13.2,31.6 7.9,26.35 7.9,19.85 C7.9,13.4 13.15,8.1 19.65,8.1 C26.15,8.1 31.4,13.35 31.4,19.85 C31.4,26.35 26.1,31.6 19.65,31.6 Z"/>
    </g>
  </g>
</svg>
