<svg xmlns="http://www.w3.org/2000/svg" width="36" height="40" viewBox="0 0 36 40">
  <g fill="none" transform="translate(-14 -12)">
    <circle cx="32" cy="32" r="32"/>
    <path fill="#000" d="M49.3,22.4 C49.3,17.1 45,12.8 39.7,12.8 C36.35,12.8 33.7,13.8 32,15.5 C30.35,13.75 27.65,12.8 24.3,12.8 C19,12.8 14.7,17.1 14.7,22.4 C14.7,26.1 16.05,29.75 18.3,32.45 C17.15,37.5 19.95,47.65 20.55,49.8 C20.75,50.6 21.5,51.15 22.3,51.2 C22.35,51.2 22.35,51.2 22.4,51.2 C23.2,51.2 23.9,50.7 24.2,50 C25.05,47.8 28.4,41.6 32,41.6 C35.6,41.6 38.95,47.8 39.8,50 C40.1,50.75 40.9,51.25 41.7,51.2 C42.5,51.15 43.2,50.6 43.45,49.8 C44.05,47.65 46.8,37.5 45.7,32.45 C47.95,29.75 49.3,26.1 49.3,22.4 Z M39.7,30.1 L33.9,30.1 L33.9,35.85 L30.05,35.85 L30.05,30.1 L24.3,30.1 L24.3,26.25 L30.05,26.25 L30.05,20.5 L33.9,20.5 L33.9,26.25 L39.65,26.25 L39.65,30.1 L39.7,30.1 Z"/>
  </g>
</svg>
