<svg xmlns="http://www.w3.org/2000/svg" width="40" height="40" viewBox="0 0 40 40">
  <g fill="none" transform="translate(-12 -12)">
    <circle cx="32" cy="32" r="32"/>
    <g fill="#000" transform="translate(12.5 12.5)">
      <path d="M31,0.3 C30.1,0.3 29.35,0.9 29.15,1.8 L27.3,9.9 L2.2,9.9 C1.6,9.9 1.05,10.15 0.7,10.65 C0.35,11.1 0.2,11.7 0.35,12.3 L4.2,27.65 C4.4,28.5 5.2,29.1 6.05,29.1 L25.25,29.1 C26.15,29.1 26.9,28.5 27.1,27.6 L32.5,4.15 L38.65,4.15 L38.65,0.3 L31,0.3 Z"/>
      <circle cx="8" cy="34.85" r="3.85"/>
      <circle cx="23.35" cy="34.85" r="3.85"/>
    </g>
  </g>
</svg>
