<?xml version="1.0" encoding="UTF-8"?>
<svg width="45px" height="46px" viewBox="0 0 45 46" version="1.1" xmlns="http://www.w3.org/2000/svg" xmlns:xlink="http://www.w3.org/1999/xlink">
    <!-- Generator: Sketch 46.2 (44496) - http://www.bohemiancoding.com/sketch -->
    <title>icon_food</title>
    <desc>Created with Sketch.</desc>
    <defs></defs>
    <g id="New-Copy" stroke="none" stroke-width="1" fill="none" fill-rule="evenodd">
        <g id="Artboard" transform="translate(-40.000000, -58.000000)" fill-rule="nonzero">
            <g id="icon_food" transform="translate(27.000000, 52.000000)">
                <circle id="Oval" cx="32" cy="32" r="32"></circle>
                <g id="Group" transform="translate(13.000000, 6.000000)" fill="#000000">
                    <path d="M10.7,9.35 L4.9,9.35 L4.9,12.95 C3.5,14.55 0.4,18.5 0.4,22.8 L0.4,42.95 C0.4,44.2 1.4,45.2 2.65,45.2 L12.9,45.2 C14.15,45.2 15.15,44.2 15.15,42.95 L15.15,22.8 C15.15,18.5 12.1,14.55 10.65,12.95 L10.65,9.35 L10.7,9.35 Z M12.9,25.05 L12.9,34 L2.7,34 L2.7,25.05 L12.9,25.05 Z" id="Shape"></path>
                    <path d="M10.7,7.1 L10.7,2.6 C10.7,1.35 9.7,0.35 8.45,0.35 L7.15,0.35 C5.9,0.35 4.9,1.35 4.9,2.6 L4.9,7.1 L10.7,7.1 Z" id="Shape"></path>
                </g>
                <g id="Group" transform="translate(32.000000, 22.000000)" fill="#000000">
                    <path d="M12.8,0.6 L1.4,11.95 L24.15,6.25 C24.2,6.3 21.35,-0.85 12.8,0.6 Z" id="Shape"></path>
                    <path d="M25.05,9.25 C24.7,9 24.25,8.9 23.85,9 L1.1,14.65 C0.45,14.8 0,15.4 0,16.05 L0,18.9 C0,19.7 0.65,20.3 1.4,20.3 L2.8,20.3 C3.6,20.3 4.2,20.95 4.2,21.7 C4.2,22.5 3.55,23.1 2.8,23.1 L1.4,23.1 C0.6,23.1 0,23.75 0,24.5 L0,27.35 C0,27.8 0.2,28.2 0.55,28.45 C0.9,28.7 1.35,28.8 1.75,28.7 L24.5,23.1 C25.15,22.95 25.6,22.35 25.6,21.7 L25.6,10.35 C25.6,9.9 25.4,9.5 25.05,9.25 Z M9.95,21.75 C9.15,21.75 8.55,21.1 8.55,20.35 C8.55,19.55 9.2,18.95 9.95,18.95 C10.75,18.95 11.35,19.6 11.35,20.35 C11.4,21.1 10.75,21.75 9.95,21.75 Z M12.8,17.45 C12,17.45 11.4,16.8 11.4,16.05 C11.4,15.25 12.05,14.65 12.8,14.65 C13.6,14.65 14.2,15.3 14.2,16.05 C14.2,16.85 13.6,17.45 12.8,17.45 Z M18.5,21.75 C16.95,21.75 15.65,20.5 15.65,18.9 C15.65,17.35 16.9,16.05 18.5,16.05 C20.05,16.05 21.35,17.3 21.35,18.9 C21.35,20.45 20.05,21.75 18.5,21.75 Z" id="Shape"></path>
                </g>
            </g>
        </g>
    </g>
</svg>