<svg xmlns="http://www.w3.org/2000/svg" width="41" height="47" viewBox="0 0 41 47">
  <g fill="none" transform="translate(-12 -7)">
    <circle cx="32" cy="32" r="32"/>
    <path fill="#000" d="M42.75 40.75L42.75 35.75 40 35.75C39.65 34.15 39.05 32.7 38.15 31.35L40.1 29.4 36.55 25.85 34.6 27.8C33.3 26.95 31.8 26.3 30.25 26L30.25 23.25 25.25 23.25 25.25 26C23.65 26.3 22.2 26.95 20.85 27.85L18.9 25.9 15.35 29.45 17.3 31.4C16.45 32.7 15.8 34.2 15.45 35.8L12.7 35.8 12.7 40.8 15.45 40.8C15.75 42.4 16.4 43.85 17.3 45.2L15.35 47.15 18.9 50.7 20.85 48.75C22.15 49.6 23.65 50.25 25.25 50.6L25.25 53.35 30.25 53.35 30.25 50.5C31.85 50.2 33.3 49.55 34.65 48.65L36.6 50.6 40.15 47.05 38.2 45.1C39.05 43.8 39.7 42.3 40.05 40.75L42.75 40.75zM27.8 43.25C25.05 43.25 22.8 41 22.8 38.25 22.8 35.5 25.05 33.25 27.8 33.25 30.55 33.25 32.8 35.5 32.8 38.25 32.75 41 30.55 43.25 27.8 43.25zM44.8 14.1L43.95 11.65 42.6 12.1C42.15 11.35 41.6 10.75 40.95 10.25L41.6 8.95 39.25 7.8 38.6 9.1C37.8 8.9 36.95 8.85 36.1 8.95L35.65 7.6 33.2 8.45 33.65 9.8C32.9 10.25 32.3 10.8 31.8 11.45L30.5 10.8 29.35 13.15 30.65 13.8C30.45 14.6 30.4 15.45 30.5 16.3L29.15 16.75 30 19.2 31.35 18.75C31.8 19.5 32.35 20.1 33 20.6L32.35 21.9 34.7 23.05 35.35 21.75C36.15 21.95 37 22 37.85 21.9L38.3 23.25 40.75 22.4 40.3 21.05C41.05 20.6 41.65 20.05 42.15 19.4L43.45 20.05 44.6 17.7 43.3 17.05C43.5 16.25 43.55 15.4 43.45 14.55L44.8 14.1zM37.8 17.9C36.45 18.35 34.95 17.65 34.45 16.3 34 14.95 34.7 13.45 36.05 12.95 37.4 12.5 38.9 13.2 39.4 14.55 39.9 15.95 39.15 17.4 37.8 17.9zM52.25 29.05L51.65 27.3 50.7 27.65C50.4 27.15 50 26.7 49.55 26.35L50 25.45 48.35 24.65 47.9 25.55C47.35 25.4 46.75 25.35 46.15 25.45L45.8 24.5 44.05 25.1 44.4 26.05C43.9 26.35 43.45 26.75 43.1 27.2L42.2 26.75 41.4 28.4 42.3 28.85C42.15 29.4 42.1 30 42.2 30.6L41.25 30.95 41.85 32.7 42.8 32.35C43.1 32.85 43.5 33.3 43.95 33.65L43.55 34.5 45.2 35.3 45.65 34.4C46.2 34.55 46.8 34.6 47.4 34.5L47.75 35.45 49.5 34.85 49.15 33.9C49.65 33.6 50.1 33.2 50.45 32.75L51.35 33.2 52.15 31.55 51.25 31.1C51.4 30.55 51.45 29.95 51.35 29.35L52.25 29.05zM47.35 31.7C46.4 32.05 45.35 31.5 45 30.55 44.65 29.6 45.2 28.55 46.15 28.2 47.1 27.85 48.15 28.4 48.5 29.35 48.85 30.3 48.3 31.35 47.35 31.7z"/>
  </g>
</svg>
