<svg xmlns="http://www.w3.org/2000/svg" width="40" height="29" viewBox="0 0 40 29">
  <g fill="none" transform="translate(-12 -16)">
    <circle cx="32" cy="32" r="32"/>
    <g fill="#000" transform="translate(12.5 16)">
      <path d="M36.8,9.6 L34.9,9.6 C33.85,9.6 33,10.45 33,11.5 L33,13.4 L6.05,13.4 L6.05,1.9 C6.05,0.85 5.2,-3.55271368e-15 4.15,-3.55271368e-15 L2.25,-3.55271368e-15 C1.2,-3.55271368e-15 0.35,0.85 0.35,1.9 L0.35,26.85 C0.35,27.9 1.2,28.75 2.25,28.75 L4.15,28.75 C5.2,28.75 6.05,27.9 6.05,26.85 L6.05,24.95 L32.95,24.95 L32.95,26.85 C32.95,27.9 33.8,28.75 34.85,28.75 L36.75,28.75 C37.8,28.75 38.65,27.9 38.65,26.85 L38.65,11.5 C38.7,10.45 37.85,9.6 36.8,9.6 Z"/>
      <path d="M22.7,6.4 C22.7,4.3 21,2.55 18.85,2.55 L11.2,2.55 L11.2,8.3 L22.7,8.3 L22.7,6.4 Z"/>
    </g>
  </g>
</svg>
