<?xml version="1.0" encoding="UTF-8"?>
<svg width="33px" height="40px" viewBox="0 0 33 40" version="1.1" xmlns="http://www.w3.org/2000/svg" xmlns:xlink="http://www.w3.org/1999/xlink">
    <!-- Generator: Sketch 46.2 (44496) - http://www.bohemiancoding.com/sketch -->
    <title>icon-advertising</title>
    <desc>Created with Sketch.</desc>
    <defs></defs>
    <g id="New-Icons---no-artboard" stroke="none" stroke-width="1" fill="none" fill-rule="evenodd">
        <g id="icon-advertising" transform="translate(-12.000000, -12.000000)" fill-rule="nonzero" fill="#000000">
            <g transform="translate(12.500000, 12.500000)" id="Shape">
                <path d="M30.9,0.45 C30.05,0.1 29.1,0.3 28.45,0.95 L18.85,8.3 L8.95,8.3 L8.95,23 L18.85,23 L28.5,30.35 C29.15,31 30.1,31.2 30.95,30.85 C31.8,30.5 32.35,29.7 32.35,28.8 L32.35,2.55 C32.3,1.65 31.75,0.8 30.9,0.45 Z"></path>
                <path d="M0.3,10.55 L0.3,20.8 C0.3,22.05 1.3,23.05 2.55,23.05 L6.05,23.05 L6.05,8.3 L2.55,8.3 C1.3,8.3 0.3,9.3 0.3,10.55 Z"></path>
                <polygon points="9.9 25.9 13.1 38.7 19.5 38.7 16.3 25.9"></polygon>
            </g>
        </g>
    </g>
</svg>