<?xml version="1.0" encoding="utf-8"?>
<!-- Generator: Adobe Illustrator 21.0.2, SVG Export Plug-In . SVG Version: 6.00 Build 0)  -->
<svg version="1.1" id="Ebene_1" xmlns="http://www.w3.org/2000/svg" xmlns:xlink="http://www.w3.org/1999/xlink" x="0px" y="0px"
	 viewBox="0 0 128 128" style="enable-background:new 0 0 128 128;" xml:space="preserve">
<style type="text/css">
	.st0{fill:#E2001A;}
	.st1{fill:#FFFFFF;}
</style>
<circle class="st0" cx="64" cy="64" r="64"/>
<g>
	<path class="st1" d="M99.5,71.2c-0.3-0.1-5.3-1.8-11.2-3.1c6.2-8.8,9.8-21.5,9.9-22.1c0.4-1.6-0.1-3.3-1.4-4.4
		c-1.3-1.1-3.1-1.3-4.6-0.6c-0.4,0.2-8.1,3.9-15.3,7.7c-0.1-18.6-9.2-31.4-9.6-32c-1.6-2.2-5.3-2.2-6.9,0c-0.4,0.5-9.5,13.3-9.6,32
		c-7.2-3.8-14.8-7.5-15.3-7.7c-1.5-0.7-3.3-0.5-4.6,0.6c-1.3,1.1-1.8,2.8-1.4,4.4c0.2,0.6,3.7,13.4,9.9,22.1
		c-5.8,1.3-10.9,3-11.2,3.1c-1.5,0.5-2.7,1.9-2.9,3.5c-0.2,1.6,0.6,3.2,1.9,4.1c0.9,0.6,6.5,4.1,12.9,6.5l-4.3,2.8l4.6,7.2l12.8-8.2
		c1.3-0.9,2-2.4,1.9-3.9h17.2c-0.1,1.5,0.6,3,1.9,3.9l12.8,8.2l4.6-7.2l-4.3-2.8c6.3-2.4,11.9-5.9,12.9-6.5c1.4-0.9,2.1-2.5,1.9-4.1
		C102.2,73.1,101,71.7,99.5,71.2z"/>
	<rect x="59.7" y="87.5" class="st1" width="8.5" height="19.2"/>
</g>
</svg>
