<?xml version="1.0" encoding="utf-8"?>
<!-- Generator: Adobe Illustrator 21.0.2, SVG Export Plug-In . SVG Version: 6.00 Build 0)  -->
<svg version="1.1" id="Ebene_1" xmlns="http://www.w3.org/2000/svg" xmlns:xlink="http://www.w3.org/1999/xlink" x="0px" y="0px"
	 viewBox="0 0 128 128" style="enable-background:new 0 0 128 128;" xml:space="preserve">
<style type="text/css">
	.st0{fill:#E2001A;}
	.st1{fill:#FFFFFF;}
</style>
<circle class="st0" cx="64" cy="64" r="64"/>
<g>
	<path class="st1" d="M56.6,75.8V63.3c-6.3,2.7-11.1,9.4-11.1,17.1c0,10.2,8.3,18.5,18.5,18.5s18.5-8.3,18.5-18.5
		c0-9.5,0-18.5-18.5-37C70.2,68.1,56.6,75.8,56.6,75.8z"/>
	<path class="st1" d="M55.2,41.4l-3-6.8C43,38.7,36.5,47.1,34.9,57l7.3,1.2C43.4,50.8,48.4,44.4,55.2,41.4z"/>
	<path class="st1" d="M75.5,34.7l-3,6.8c6.8,3,11.8,9.4,13,16.8l7.3-1.2C91.3,47.1,84.8,38.7,75.5,34.7z"/>
	<path class="st1" d="M76.1,19.2l-2,7.1C89.9,30.8,101,45.4,101,61.9h7.4C108.4,42.1,95.1,24.6,76.1,19.2z"/>
	<path class="st1" d="M53.9,26.3l-2-7.1c-19,5.4-32.3,22.9-32.3,42.7H27C27,45.4,38.1,30.8,53.9,26.3z"/>
</g>
</svg>
