<?xml version="1.0" encoding="UTF-8"?>
<svg width="40px" height="41px" viewBox="0 0 40 41" version="1.1" xmlns="http://www.w3.org/2000/svg" xmlns:xlink="http://www.w3.org/1999/xlink">
    <!-- Generator: Sketch 46.2 (44496) - http://www.bohemiancoding.com/sketch -->
    <title>icon-bars</title>
    <desc>Created with Sketch.</desc>
    <defs></defs>
    <g id="New-Icons---no-artboard" stroke="none" stroke-width="1" fill="none" fill-rule="evenodd">
        <g id="icon-bars" transform="translate(-12.000000, -11.000000)" fill-rule="nonzero" fill="#000000">
            <g transform="translate(12.500000, 11.000000)" id="Shape">
                <path d="M31.65,1.8 C27.75,1.8 24.6,4.95 24.6,8.85 L33.4,8.85 L33.4,15.65 C36.45,14.85 38.7,12.15 38.7,8.85 C38.7,4.95 35.55,1.8 31.65,1.8 Z"></path>
                <path d="M29.9,10.6 L5.25,10.6 C4.55,10.6 3.9,11.05 3.6,11.7 C3.35,12.35 3.5,13.1 4,13.6 L15.8,25.4 L15.8,36.65 L10.55,36.65 L10.55,40.15 L24.65,40.15 L24.65,36.65 L19.35,36.65 L19.35,25.4 L31.15,13.6 C31.65,13.1 31.8,12.35 31.55,11.7 C31.25,11.05 30.6,10.6 29.9,10.6 Z"></path>
                <path d="M9.8,8.85 L14.8,8.85 L6.8,0.9 C6.45,0.55 6,0.4 5.55,0.4 L0.3,0.4 L0.3,3.9 L4.85,3.9 L9.8,8.85 Z"></path>
            </g>
        </g>
    </g>
</svg>