<?xml version="1.0" encoding="utf-8"?>
<!-- Generator: Adobe Illustrator 21.0.2, SVG Export Plug-In . SVG Version: 6.00 Build 0)  -->
<svg version="1.1" id="Ebene_1" xmlns="http://www.w3.org/2000/svg" xmlns:xlink="http://www.w3.org/1999/xlink" x="0px" y="0px"
	 viewBox="0 0 128 128" style="enable-background:new 0 0 128 128;" xml:space="preserve">
<style type="text/css">
	.st0{fill:#E2001A;}
	.st1{fill:#FFFFFF;}
</style>
<circle class="st0" cx="64" cy="64" r="64"/>
<g>
	<path class="st1" d="M86.8,25.9c-1.7-0.7-3.6-0.3-4.9,1L62.7,41.6H42.9V71h19.8L82,85.7c1.3,1.3,3.2,1.7,4.9,1
		c1.7-0.7,2.8-2.3,2.8-4.1V30.1C89.6,28.3,88.5,26.6,86.8,25.9z"/>
	<path class="st1" d="M25.6,46.1v20.5c0,2.5,2,4.5,4.5,4.5h7V41.6h-7C27.6,41.6,25.6,43.6,25.6,46.1z"/>
	<polygon class="st1" points="44.8,76.8 51.2,102.4 64,102.4 57.6,76.8 	"/>
</g>
</svg>
