<svg xmlns="http://www.w3.org/2000/svg" width="41" height="40" viewBox="0 0 41 40">
  <g fill="none" transform="translate(-12 -12)">
    <circle cx="32" cy="32" r="32"/>
    <g fill="#000" transform="translate(12 12.5)">
      <rect width="19.35" height="3.5" y="31.65"/>
      <path d="M29.6,0.3 C27.65,0.3 26.1,1.9 26.1,3.8 L26.1,5.55 L3.5,5.55 L3.5,9.05 L8.8,9.05 L8.8,17.85 C6.75,18.6 5.3,20.55 5.3,22.85 C5.3,25.75 7.65,28.15 10.6,28.15 C13.55,28.15 15.9,25.8 15.9,22.85 L12.4,22.85 C12.4,23.8 11.6,24.6 10.65,24.6 C9.7,24.6 8.9,23.8 8.9,22.85 C8.9,21.9 9.7,21.1 10.65,21.1 L12.4,21.1 L12.4,9.1 L26.15,9.1 L26.15,38.7 L33.2,38.7 L33.2,3.8 C33.1,1.9 31.55,0.3 29.6,0.3 Z"/>
      <rect width="5.3" height="10.25" x="34.9" y="5.6"/>
    </g>
  </g>
</svg>
