<?xml version="1.0" encoding="UTF-8"?>
<svg width="41px" height="41px" viewBox="0 0 41 41" version="1.1" xmlns="http://www.w3.org/2000/svg" xmlns:xlink="http://www.w3.org/1999/xlink">
    <!-- Generator: Sketch 46.2 (44496) - http://www.bohemiancoding.com/sketch -->
    <title>icon-gym</title>
    <desc>Created with Sketch.</desc>
    <defs></defs>
    <g id="New-Icons---no-artboard" stroke="none" stroke-width="1" fill="none" fill-rule="evenodd">
        <g id="icon-gym" transform="translate(-12.000000, -12.000000)" fill-rule="nonzero" fill="#000000">
            <g transform="translate(12.500000, 12.500000)">
                <rect id="Rectangle-path" transform="translate(3.361125, 36.893755) rotate(-45.000000) translate(-3.361125, -36.893755) " x="1.21114562" y="34.7437756" width="4.29995876" height="4.29995876"></rect>
                <path d="M4.85,26.2 C4,25.35 2.65,25.35 1.8,26.2 C0.95,27.05 0.95,28.4 1.8,29.25 L10.95,38.4 C11.8,39.25 13.15,39.25 14,38.4 C14.4,38 14.65,37.45 14.65,36.9 C14.65,36.35 14.4,35.8 14,35.4 L4.85,26.2 Z" id="Shape"></path>
                <rect id="Rectangle-path" transform="translate(36.895675, 3.337445) rotate(-45.000000) translate(-36.895675, -3.337445) " x="34.7456956" y="1.18746562" width="4.29995876" height="4.29995876"></rect>
                <path d="M29.25,1.8 C28.4,0.95 27.05,0.95 26.2,1.8 C25.8,2.2 25.55,2.75 25.55,3.3 C25.55,3.85 25.8,4.4 26.2,4.8 L35.35,14 C36.2,14.85 37.55,14.85 38.4,14 C39.25,13.15 39.25,11.8 38.4,10.95 L29.25,1.8 Z" id="Shape"></path>
                <path d="M23.15,4.85 C22.3,4 20.95,4 20.1,4.85 L18.6,6.35 C17.75,7.2 17.75,8.55 18.6,9.4 L23.15,13.95 L14,23.15 L9.45,18.6 C8.6,17.75 7.25,17.75 6.4,18.6 L4.9,20.1 C4.5,20.5 4.25,21.05 4.25,21.6 C4.25,22.15 4.5,22.7 4.9,23.1 L17.1,35.3 C17.5,35.7 18.05,35.95 18.6,35.95 C19.15,35.95 19.7,35.7 20.1,35.3 L21.6,33.8 C22.45,32.95 22.45,31.6 21.6,30.75 L17.05,26.2 L26.2,17.05 L30.75,21.6 C31.6,22.45 32.95,22.45 33.8,21.6 L35.3,20.1 C35.7,19.7 35.95,19.15 35.95,18.6 C35.95,18.05 35.7,17.5 35.3,17.1 L23.15,4.85 Z" id="Shape"></path>
            </g>
        </g>
    </g>
</svg>