<?xml version="1.0" encoding="utf-8"?>
<!-- Generator: Adobe Illustrator 21.0.2, SVG Export Plug-In . SVG Version: 6.00 Build 0)  -->
<svg version="1.1" id="Ebene_1" xmlns="http://www.w3.org/2000/svg" xmlns:xlink="http://www.w3.org/1999/xlink" x="0px" y="0px"
	 viewBox="0 0 128 128" style="enable-background:new 0 0 128 128;" xml:space="preserve">
<style type="text/css">
	.st0{fill:#E2001A;}
	.st1{fill:#FFFFFF;}
</style>
<circle class="st0" cx="64" cy="64" r="64"/>
<path class="st1" d="M106.3,37.3L85.3,16.2l-6,6l15,15l-6,6l-15-15l-6,6l15,15l-6,6l-15-15l-6,6l15,15l-6,6l-15-15l-6,6l15,15l-6,6
	l-15-15l-6,6l15,15l-6,6l-15-15l-6,6l21.1,21.1c3.3,3.3,8.7,3.3,12,0l54.2-54.2C109.6,46,109.6,40.6,106.3,37.3z"/>
</svg>
