<?xml version="1.0" encoding="utf-8"?>
<!-- Generator: Adobe Illustrator 21.0.2, SVG Export Plug-In . SVG Version: 6.00 Build 0)  -->
<svg version="1.1" id="Ebene_1" xmlns="http://www.w3.org/2000/svg" xmlns:xlink="http://www.w3.org/1999/xlink" x="0px" y="0px"
	 viewBox="0 0 128 128" style="enable-background:new 0 0 128 128;" xml:space="preserve">
<style type="text/css">
	.st0{fill:#E2001A;}
	.st1{fill:#FFFFFF;}
</style>
<circle class="st0" cx="64" cy="64" r="64"/>
<path class="st1" d="M94.7,38.4H79.4V26.9c0-2.1-1.7-3.8-3.8-3.8h-23c-2.1,0-3.8,1.7-3.8,3.8v11.5H33.3c-4.2,0-7.7,3.4-7.7,7.7v38.4
	c0,4.2,3.4,7.7,7.7,7.7h61.4c4.2,0,7.7-3.4,7.7-7.7V46.1C102.4,41.8,99,38.4,94.7,38.4z M56.3,30.7h15.4v7.7H56.3V30.7z M79.4,69.1
	H67.8v11.5h-7.7V69.1H48.6v-7.7h11.5V49.9h7.7v11.5h11.5V69.1z"/>
</svg>
