<?xml version="1.0" encoding="utf-8"?>
<!-- Generator: Adobe Illustrator 21.0.2, SVG Export Plug-In . SVG Version: 6.00 Build 0)  -->
<svg version="1.1" id="Ebene_1" xmlns="http://www.w3.org/2000/svg" xmlns:xlink="http://www.w3.org/1999/xlink" x="0px" y="0px"
	 viewBox="0 0 128 128" style="enable-background:new 0 0 128 128;" xml:space="preserve">
<style type="text/css">
	.st0{fill:#E2001A;}
	.st1{fill:#FFFFFF;}
</style>
<circle class="st0" cx="64" cy="64" r="64"/>
<g>
	<circle class="st1" cx="70.4" cy="48" r="9.6"/>
	<path class="st1" d="M38.4,25.6v38.7c1-0.1,2.1-0.3,3.2-0.3c1.1,0,2.2,0.1,3.3,0.3c2.8-2.8,6.3-4.9,10.3-5.9L44.8,48V32H80l16,16
		v16H76.5c1.9,1.8,3.4,4,4.6,6.4h21.4V25.6H38.4z"/>
	<path class="st1" d="M60.8,64c-5.7,0-10.7,3-13.5,7.5c-1.8-0.7-3.7-1.1-5.7-1.1c-8.8,0-16,7.2-16,16s7.2,16,16,16
		c5.7,0,10.6-3,13.5-7.5c1.8,0.7,3.7,1.1,5.7,1.1c8.8,0,16-7.2,16-16S69.6,64,60.8,64z M41.6,96c-5.3,0-9.6-4.3-9.6-9.6
		s4.3-9.6,9.6-9.6c1.2,0,2.4,0.2,3.5,0.7c-0.1,0.8-0.3,1.7-0.3,2.5c0,4.5,1.9,8.6,4.9,11.5C48,94.2,45,96,41.6,96z M60.8,89.6
		c-5.3,0-9.6-4.3-9.6-9.6s4.3-9.6,9.6-9.6s9.6,4.3,9.6,9.6S66.1,89.6,60.8,89.6z"/>
</g>
</svg>
