<?xml version="1.0" encoding="utf-8"?>
<!-- Generator: Adobe Illustrator 21.0.2, SVG Export Plug-In . SVG Version: 6.00 Build 0)  -->
<svg version="1.1" id="Ebene_1" xmlns="http://www.w3.org/2000/svg" xmlns:xlink="http://www.w3.org/1999/xlink" x="0px" y="0px"
	 viewBox="0 0 128 128" style="enable-background:new 0 0 128 128;" xml:space="preserve">
<style type="text/css">
	.st0{fill:#E2001A;}
	.st1{fill:#FFFFFF;}
</style>
<circle class="st0" cx="64" cy="64" r="64"/>
<g>
	<rect x="24" y="88.3" class="st1" width="38.7" height="7"/>
	<path class="st1" d="M83.2,25.6c-3.9,0-7,3.2-7,7v3.5H31v7h10.6v17.6c-4.1,1.5-7,5.4-7,10c0,5.8,4.7,10.6,10.6,10.6
		s10.6-4.7,10.6-10.6h-7c0,1.9-1.6,3.5-3.5,3.5c-1.9,0-3.5-1.6-3.5-3.5c0-1.9,1.6-3.5,3.5-3.5h3.5v-24h27.5v59.2h14.1V32.6
		C90.2,28.8,87.1,25.6,83.2,25.6z"/>
	<rect x="93.8" y="36.2" class="st1" width="10.6" height="20.5"/>
</g>
</svg>
