<?xml version="1.0" encoding="utf-8"?>
<!-- Generator: Adobe Illustrator 21.0.2, SVG Export Plug-In . SVG Version: 6.00 Build 0)  -->
<svg version="1.1" id="Ebene_1" xmlns="http://www.w3.org/2000/svg" xmlns:xlink="http://www.w3.org/1999/xlink" x="0px" y="0px"
	 viewBox="0 0 128 128" style="enable-background:new 0 0 128 128;" xml:space="preserve">
<style type="text/css">
	.st0{fill:#E2001A;}
	.st1{fill:#FFFFFF;}
</style>
<circle class="st0" cx="64" cy="64" r="64"/>
<g>
	<path class="st1" d="M39.6,51.1V31.8l20.9,23.3v16.5h34.9V61.1c0-1.9-1.6-3.5-3.5-3.5h-7v-14c0-3.9-3.1-7-7-7H67.5
		c-3.9,0-7,3.1-7,7v1L38.7,20.4c-1-1.1-2.5-1.4-3.8-0.9c-1.3,0.5-2.2,1.8-2.2,3.3v28.4c-6,1.6-10.5,7-10.5,13.5c0,7.7,6.2,14,14,14
		s14-6.2,14-14C50,58.1,45.6,52.7,39.6,51.1z M67.5,43.6H78v10.5H67.5V43.6z"/>
	<path class="st1" d="M95.4,75.1H60.5c-5.8,0-10.5,4.7-10.5,10.5C50,91.3,54.7,96,60.5,96h34.9c5.8,0,10.5-4.7,10.5-10.5
		C105.9,79.7,101.2,75.1,95.4,75.1z M60.5,90.8c-2.9,0-5.2-2.3-5.2-5.2s2.3-5.2,5.2-5.2s5.2,2.3,5.2,5.2S63.4,90.8,60.5,90.8z
		 M78,90.8c-2.9,0-5.2-2.3-5.2-5.2s2.3-5.2,5.2-5.2c2.9,0,5.2,2.3,5.2,5.2S80.9,90.8,78,90.8z M95.4,90.8c-2.9,0-5.2-2.3-5.2-5.2
		s2.3-5.2,5.2-5.2c2.9,0,5.2,2.3,5.2,5.2S98.3,90.8,95.4,90.8z"/>
</g>
</svg>
