<svg xmlns="http://www.w3.org/2000/svg" width="41" height="37" viewBox="0 0 41 37">
  <g fill="none" transform="translate(-11 -12)">
    <circle cx="32" cy="32" r="32"/>
    <path fill="#000" d="M24.45 24.35C26.5 23.35 27.9 21.3 27.9 18.9 27.9 15.55 25.15 12.8 21.8 12.8 18.45 12.8 15.7 15.55 15.7 18.9 15.7 21.3 17.1 23.35 19.15 24.35 14.85 25.5 11.65 29.4 11.65 34.1L11.65 38.15C11.65 39.25 12.55 40.2 13.7 40.2L15.75 40.2 15.75 46.3C15.75 47.4 16.65 48.35 17.8 48.35L25.9 48.35C27 48.35 27.95 47.45 27.95 46.3L27.95 40.15 30 40.15C31.1 40.15 32.05 39.25 32.05 38.1L32.05 34.05C31.95 29.4 28.75 25.5 24.45 24.35zM46.65 36.95C48.15 35.85 49.2 34.05 49.2 32.05 49.2 28.7 46.45 25.95 43.1 25.95 39.75 25.95 37 28.7 37 32.05 37 34.05 38 35.85 39.55 36.95 36.85 38.3 35 41 35 44.2L35 46.25C35 47.35 35.9 48.3 37.05 48.3L49.2 48.3C50.3 48.3 51.25 47.4 51.25 46.25L51.25 44.2C51.2 41 49.35 38.3 46.65 36.95z"/>
  </g>
</svg>
