<?xml version="1.0" encoding="UTF-8"?>
<svg width="36px" height="35px" viewBox="0 0 36 35" version="1.1" xmlns="http://www.w3.org/2000/svg" xmlns:xlink="http://www.w3.org/1999/xlink">
    <!-- Generator: Sketch 46.2 (44496) - http://www.bohemiancoding.com/sketch -->
    <title>icon-it</title>
    <desc>Created with Sketch.</desc>
    <defs></defs>
    <g id="New-Icons---no-artboard" stroke="none" stroke-width="1" fill="none" fill-rule="evenodd">
        <g id="icon-it" transform="translate(-16.000000, -13.000000)" fill-rule="nonzero" fill="#000000">
            <g transform="translate(16.000000, 13.000000)" id="Shape">
                <path d="M35.2,7.15 L35.2,3.65 C35.2,1.7 33.6,0.15 31.7,0.15 L3.5,0.15 C1.55,0.15 0,1.75 0,3.65 L0,7.15 L35.2,7.15 Z M10.55,1.9 C11.5,1.9 12.3,2.7 12.3,3.65 C12.3,4.6 11.5,5.4 10.55,5.4 C9.6,5.4 8.8,4.6 8.8,3.65 C8.8,2.65 9.6,1.9 10.55,1.9 Z M5.3,1.9 C6.25,1.9 7.05,2.7 7.05,3.65 C7.05,4.6 6.25,5.4 5.3,5.4 C4.35,5.4 3.55,4.6 3.55,3.65 C3.5,2.65 4.3,1.9 5.3,1.9 Z"></path>
                <path d="M0,12.1 L0,31.5 C0,33.45 1.6,35 3.5,35 L31.65,35 C33.6,35 35.15,33.4 35.15,31.5 L35.15,12.1 L0,12.1 Z M31.35,31.5 L26.1,31.5 L26.1,23 L19.35,23 L19.35,27.95 L21.1,27.95 L21.1,31.45 L14.1,31.45 L14.1,27.95 L15.85,27.95 L15.85,23 L9.1,23 L9.1,31.5 L3.85,31.5 L3.85,28 L5.6,28 L5.6,21.25 C5.6,20.3 6.4,19.5 7.35,19.5 L15.85,19.5 L15.85,17.75 L14.1,17.75 L14.1,14.25 L21.15,14.25 L21.15,17.75 L19.4,17.75 L19.4,19.5 L27.9,19.5 C28.85,19.5 29.65,20.3 29.65,21.25 L29.65,27.95 L31.4,27.95 L31.4,31.5 L31.35,31.5 Z"></path>
            </g>
        </g>
    </g>
</svg>