<?xml version="1.0" encoding="utf-8"?>
<!-- Generator: Adobe Illustrator 21.0.2, SVG Export Plug-In . SVG Version: 6.00 Build 0)  -->
<svg version="1.1" id="Ebene_1" xmlns="http://www.w3.org/2000/svg" xmlns:xlink="http://www.w3.org/1999/xlink" x="0px" y="0px"
	 viewBox="0 0 128 128" style="enable-background:new 0 0 128 128;" xml:space="preserve">
<style type="text/css">
	.st0{fill:#E2001A;}
	.st1{fill:#FFFFFF;}
</style>
<circle class="st0" cx="64" cy="64" r="64"/>
<g>
	<path class="st1" d="M52.5,55.2c3.4-3.9,3-9.8-0.9-13.1c-3.9-3.4-20.1-5.2-20.1-5.2s3.3,15.1,8,19.2C43.3,59.4,49.1,59,52.5,55.2z"
		/>
	<path class="st1" d="M67.5,60.4c0-1.2,0.4-2.7,1.1-4.1c5.3,3.4,12.5,2.8,17-1.9c5.2-5.3,9.2-28.8,9.2-28.8s-22.2,3.5-28.5,9.9
		c-3.8,3.9-4.8,9.6-2.8,14.4c-2.4,3.5-3.6,7.3-3.6,10.5v11.3h7.7V60.4z"/>
	<path class="st1" d="M85.4,75.5H41.8c-1.2,0-2.3,0.6-3.1,1.5c-0.7,1-1,2.2-0.6,3.4l5.5,19.2c0.5,1.6,2,2.8,3.7,2.8H80
		c1.7,0,3.2-1.1,3.7-2.8l5.5-19.2c0.3-1.2,0.1-2.4-0.6-3.4C87.8,76.1,86.6,75.5,85.4,75.5z"/>
</g>
</svg>
