<?xml version="1.0" encoding="UTF-8"?>
<svg width="46px" height="39px" viewBox="0 0 46 39" version="1.1" xmlns="http://www.w3.org/2000/svg" xmlns:xlink="http://www.w3.org/1999/xlink">
    <!-- Generator: Sketch 46.2 (44496) - http://www.bohemiancoding.com/sketch -->
    <title>icon-travel</title>
    <desc>Created with Sketch.</desc>
    <defs></defs>
    <g id="New-Icons---no-artboard" stroke="none" stroke-width="1" fill="none" fill-rule="evenodd">
        <g id="icon-travel" transform="translate(-9.000000, -13.000000)" fill-rule="nonzero" fill="#000000">
            <g transform="translate(9.500000, 13.500000)" id="Shape">
                <path d="M0.1,19.05 C0.1,21 0.4,22.9 0.95,24.65 L9.4,24.65 L9.4,13.45 L0.95,13.45 C0.4,15.2 0.1,17.1 0.1,19.05 Z"></path>
                <path d="M2.65,9.7 L9.45,9.7 L9.45,2.9 C6.6,4.55 4.25,6.9 2.65,9.7 Z"></path>
                <polygon points="20.65 13.45 13.15 13.45 13.15 24.65 24.35 24.65 24.35 19.05 20.65 19.05"></polygon>
                <path d="M20.65,0.45 C20.05,0.4 19.4,0.35 18.8,0.35 C16.85,0.35 14.95,0.65 13.2,1.2 L13.2,9.65 L20.65,9.65 L20.65,0.45 L20.65,0.45 Z"></path>
                <path d="M28.1,35.15 C30.9,33.5 33.25,31.15 34.9,28.35 L28.1,28.35 L28.1,35.15 Z"></path>
                <path d="M9.45,35.15 L9.45,28.35 L2.65,28.35 C4.25,31.2 6.6,33.55 9.45,35.15 Z"></path>
                <path d="M28.1,24.65 L36.55,24.65 C37.1,22.9 37.4,21 37.4,19.05 L28.1,19.05 L28.1,24.65 Z"></path>
                <path d="M13.15,36.85 C14.9,37.4 16.8,37.7 18.75,37.7 C20.7,37.7 22.6,37.4 24.35,36.85 L24.35,28.35 L13.15,28.35 L13.15,36.85 Z"></path>
                <path d="M44.75,3.2 C44.35,2.3 43.25,1.85 42.35,2.2 L37.1,4.55 L30.9,0.6 L27.9,2.15 C28.2,2.35 33.6,5.95 33.95,5.95 L29.4,7.95 L25.5,6.2 L22.5,7.95 L29.95,11.7 L34.05,9.8 L31.2,17.2 L34.55,15.45 L38.65,8 L43.75,5.75 C44.75,5.3 45.15,4.15 44.75,3.2 Z"></path>
            </g>
        </g>
    </g>
</svg>