<svg xmlns="http://www.w3.org/2000/svg" width="46" height="36" viewBox="0 0 46 36">
  <g fill="none" transform="translate(-9 -12)">
    <circle cx="32" cy="32" r="32"/>
    <path fill="#000" d="M45.7,12.8 L18.3,12.8 L9.15,28.8 L9.15,43.45 L13.7,43.45 C13.7,45.95 15.75,48 18.25,48 C20.75,48 22.8,45.95 22.8,43.45 L41.1,43.45 C41.1,45.95 43.15,48 45.65,48 C48.15,48 50.2,45.95 50.2,43.45 L54.75,43.45 L54.75,28.8 L45.7,12.8 Z M20.55,17.35 L43.4,17.35 L48,26.5 L16,26.5 L20.55,17.35 Z M25.15,35.65 L13.7,35.65 L13.7,31.1 L25.15,31.1 L25.15,35.65 Z M50.3,35.65 L38.85,35.65 L38.85,31.1 L50.3,31.1 L50.3,35.65 Z"/>
  </g>
</svg>
