<svg xmlns="http://www.w3.org/2000/svg" width="48" height="46" viewBox="0 0 48 46">
  <g fill="none" transform="translate(-7 -12)">
    <circle cx="32" cy="32" r="32"/>
    <path fill="#000" d="M44.5,12.8 L18.5,12.8 L7.45,26.9 L31.2,57.85 L54.45,27 L44.5,12.8 Z M21.2,29.3 L25.9,44.3 L14.4,29.3 L21.2,29.3 L21.2,29.3 Z M36.9,29.3 L31.15,47.75 L25.4,29.3 L36.9,29.3 Z M25.65,25.3 C27.1,21.8 28.45,18.5 29.15,16.85 L33.05,16.85 C33.75,18.5 35.15,21.85 36.55,25.3 L25.65,25.3 Z M41.1,29.3 L47.65,29.3 L36.5,44.1 L41.1,29.3 Z M48.35,25.3 L41,25.3 C39.3,21.15 38.2,18.5 37.5,16.85 L42.45,16.85 L48.35,25.3 Z M20.5,16.85 L24.85,16.85 C24.15,18.55 23.05,21.2 21.35,25.3 L13.85,25.3 L20.5,16.85 Z"/>
  </g>
</svg>
