<?xml version="1.0" encoding="utf-8"?>
<!-- Generator: Adobe Illustrator 21.0.2, SVG Export Plug-In . SVG Version: 6.00 Build 0)  -->
<svg version="1.1" id="Ebene_1" xmlns="http://www.w3.org/2000/svg" xmlns:xlink="http://www.w3.org/1999/xlink" x="0px" y="0px"
	 viewBox="0 0 128 128" style="enable-background:new 0 0 128 128;" xml:space="preserve">
<style type="text/css">
	.st0{fill:#E2001A;}
	.st1{fill:#FFFFFF;}
</style>
<circle class="st0" cx="64" cy="64" r="64"/>
<g>
	<rect x="98.3" y="50.6" class="st1" width="5.5" height="11"/>
	<path class="st1" d="M55.6,80.2h5.5V89l-19.4,2v-7.9h-5.5v19.3h5.5v-5.9l22.6-2.4c1.4-0.2,2.4-1.4,2.4-2.7V80.2h5.5v-5.5H55.6V80.2
		z"/>
	<path class="st1" d="M85.3,56.1c0,3-2.5,5.5-5.5,5.5H33.3v2.8c0,1.5,1.2,2.8,2.8,2.8H88c1.5,0,2.8-1.2,2.8-2.8V50l-5.5,1.8V56.1z"
		/>
	<path class="st1" d="M91.5,32H41.6c-6.1,0-11,5-11,11v8.3c0,1.5,1.2,2.8,2.8,2.8H75c1.5,0,2.8-1.2,2.8-2.8V45l14.7-4.9
		c1.1-0.4,1.9-1.4,1.9-2.6v-2.8C94.3,33.2,93.1,32,91.5,32z"/>
</g>
</svg>
