<?xml version="1.0" encoding="UTF-8"?>
<svg width="64px" height="64px" viewBox="0 0 64 64" version="1.1" xmlns="http://www.w3.org/2000/svg" xmlns:xlink="http://www.w3.org/1999/xlink">
    <!-- Generator: Sketch 48.2 (47327) - http://www.bohemiancoding.com/sketch -->
    <title>Artboard</title>
    <desc>Created with Sketch.</desc>
    <defs></defs>
    <g id="Page-1" stroke="none" stroke-width="1" fill="none" fill-rule="evenodd">
        <g id="Artboard" fill="#000000">
            <path d="M31.28125,19.0625 C31.28125,21.6875 29.921875,24.8046875 26.8984375,24.8046875 C23.1015625,24.8046875 20.8046875,20.0234375 20.8046875,16.7421875 C20.8046875,14.1171875 22.1640625,11 25.1875,11 C29.0078125,11 31.28125,15.78125 31.28125,19.0625 Z M23.265625,30.3828125 C23.265625,32.65625 22.0703125,35.0234375 19.4921875,35.0234375 C15.7421875,35.0234375 13,30.4296875 13,27.03125 C13,24.7578125 14.21875,22.3671875 16.7734375,22.3671875 C20.5234375,22.3671875 23.265625,26.984375 23.265625,30.3828125 Z M32.5,29.75 C38.2421875,29.75 46,38.0234375 46,43.5546875 C46,46.53125 43.5625,47 41.171875,47 C38.03125,47 35.5,44.890625 32.5,44.890625 C29.359375,44.890625 26.6875,46.9765625 23.2890625,46.9765625 C21.015625,46.9765625 19,46.203125 19,43.5546875 C19,38 26.7578125,29.75 32.5,29.75 Z M38.1015625,24.8046875 C35.078125,24.8046875 33.71875,21.6875 33.71875,19.0625 C33.71875,15.78125 35.9921875,11 39.8125,11 C42.8359375,11 44.1953125,14.1171875 44.1953125,16.7421875 C44.1953125,20.0234375 41.8984375,24.8046875 38.1015625,24.8046875 Z M48.2265625,22.3671875 C50.78125,22.3671875 52,24.7578125 52,27.03125 C52,30.4296875 49.2578125,35.0234375 45.5078125,35.0234375 C42.9296875,35.0234375 41.734375,32.65625 41.734375,30.3828125 C41.734375,26.984375 44.4765625,22.3671875 48.2265625,22.3671875 Z" id="Paw"></path>
        </g>
    </g>
</svg>