<?xml version="1.0" encoding="utf-8"?>
<!-- Generator: Adobe Illustrator 21.0.2, SVG Export Plug-In . SVG Version: 6.00 Build 0)  -->
<svg version="1.1" id="Ebene_1" xmlns="http://www.w3.org/2000/svg" xmlns:xlink="http://www.w3.org/1999/xlink" x="0px" y="0px"
	 viewBox="0 0 128 128" style="enable-background:new 0 0 128 128;" xml:space="preserve">
<style type="text/css">
	.st0{fill:#E2001A;}
	.st1{fill:#FFFFFF;}
</style>
<circle class="st0" cx="64" cy="64" r="64"/>
<g>
	<path class="st1" d="M83.4,26.7c-1.1-1.1-2.7-1.4-4.2-0.8c-1.4,0.6-2.4,2-2.4,3.5v73h7.7v-23h7.7c2.1,0,3.8-1.7,3.8-3.8
		C96,39.8,83.9,27.2,83.4,26.7z"/>
	<path class="st1" d="M61.4,48.6c0,2.8-1.6,5.3-3.8,6.6V25.6h-7.7v29.7c-2.3-1.3-3.8-3.8-3.8-6.6v-23h-7.7v23
		c0,7.1,4.9,13.1,11.5,14.8v38.9h7.7V63.5c6.6-1.7,11.5-7.7,11.5-14.8v-23h-7.7V48.6z"/>
</g>
</svg>
