<svg xmlns="http://www.w3.org/2000/svg" width="52" height="38" viewBox="0 0 52 38">
  <g fill="none" transform="translate(-6 -10)">
    <circle cx="32" cy="32" r="32"/>
    <path fill="#000" d="M49.5,30.25 L47.7,23.5 L48.65,23.5 L51.85,19.05 L46.55,19.05 L44.25,10.15 L36.5,10.15 L37.25,12.7 L42,12.7 L44.25,21.3 L33.1,21.3 L30.5,26.8 C30.45,26.75 30.45,26.7 30.45,26.65 L26.45,21.3 L28.7,21.3 C29.95,21.3 30.95,20.3 30.95,19.05 C30.95,17.8 29.95,16.8 28.7,16.8 L17.55,16.8 C16.3,16.8 15.3,17.8 15.3,19.05 C15.3,20.3 16.3,21.3 17.55,21.3 L20.9,21.3 L26.8,29.15 L21.4,32.6 C19.8,31.1 17.7,30.2 15.35,30.2 C10.45,30.2 6.45,34.2 6.45,39.1 C6.45,44 10.4,48 15.3,48 C20.2,48 24.2,44 24.2,39.1 C24.2,38.15 24.2,36.85 24.2,36.85 L28.65,36.05 L28.65,39.1 L37.55,39.1 L39.8,30.4 L44.3,26.15 L45.1,31 C42,32.4 39.8,35.5 39.8,39.1 C39.8,44 43.8,48 48.7,48 C53.6,48 57.6,44 57.6,39.1 C57.6,34.45 54,30.7 49.5,30.25 Z M15.3,43.55 C12.85,43.55 10.85,41.55 10.85,39.1 C10.85,36.65 12.85,34.65 15.3,34.65 C16.05,34.65 16.7,34.85 17.35,35.15 L14.1,37.2 C13.05,37.85 12.75,39.25 13.4,40.25 C14.05,41.3 15.45,41.6 16.45,40.95 L19.7,38.9 C19.7,38.95 19.7,39 19.7,39.1 C19.75,41.55 17.75,43.55 15.3,43.55 Z M48.7,43.55 C46.25,43.55 44.25,41.55 44.25,39.1 C44.25,37.7 44.9,36.5 45.9,35.7 L46.55,39.5 C46.75,40.7 47.9,41.55 49.1,41.35 C50.3,41.15 51.15,40 50.95,38.8 L50.3,35 C52,35.65 53.2,37.25 53.2,39.15 C53.15,41.55 51.15,43.55 48.7,43.55 Z"/>
  </g>
</svg>
