<svg xmlns="http://www.w3.org/2000/svg" width="33" height="39" viewBox="0 0 33 39">
  <g fill="none" transform="translate(-15 -13)">
    <circle cx="32" cy="32" r="32"/>
    <g fill="#000" transform="translate(15.5 13)">
      <circle cx="21.7" cy="9.35" r="1.8"/>
      <circle cx="25.3" cy="5.75" r="1.8"/>
      <circle cx="30.7" cy="2.15" r="1.8"/>
      <circle cx="30.7" cy="9.35" r="1.8"/>
      <circle cx="30.7" cy="16.55" r="1.8"/>
      <circle cx="25.3" cy="12.95" r="1.8"/>
      <path d="M18.05,7.55 C18.05,6.55 17.25,5.75 16.25,5.75 L7.25,5.75 C6.65,5.75 6.1,6.05 5.75,6.55 L2.15,11.95 C1.8,12.5 1.75,13.2 2.05,13.8 C2.35,14.4 2.95,14.75 3.65,14.75 L3.65,14.75 L14.45,14.75 L14.45,14.75 L14.45,16.55 L14.45,16.55 C14.45,17.05 14.65,17.5 15,17.8 L20.4,23.2 L22.95,20.65 L18.05,15.75 L18.05,7.55 Z"/>
      <path d="M12.65,17.6 L12.65,16.55 L5.45,16.55 L5.45,17.6 L0.55,22.5 C0.2,22.85 0,23.3 0,23.75 L0,36.35 C0,37.35 0.8,38.15 1.8,38.15 L16.25,38.15 C17.25,38.15 18.05,37.35 18.05,36.35 L18.05,23.75 C18.05,23.25 17.85,22.8 17.5,22.5 L12.65,17.6 Z"/>
    </g>
  </g>
</svg>
