<svg xmlns="http://www.w3.org/2000/svg" width="40" height="47" viewBox="0 0 40 47">
  <g fill="none" transform="translate(-12 -7)">
    <circle cx="32" cy="32" r="32"/>
    <g fill="#000" transform="translate(12.5 7.5)">
      <path d="M37.25,28.1 C37.1,28.05 34.6,27.2 31.65,26.55 C34.75,22.15 36.55,15.8 36.6,15.5 C36.8,14.7 36.55,13.85 35.9,13.3 C35.25,12.75 34.35,12.65 33.6,13 C33.4,13.1 29.55,14.95 25.95,16.85 C25.9,7.55 21.35,1.15 21.15,0.85 C20.35,-0.25 18.5,-0.25 17.7,0.85 C17.5,1.1 12.95,7.5 12.9,16.85 C9.3,14.95 5.5,13.1 5.25,13 C4.5,12.65 3.6,12.75 2.95,13.3 C2.3,13.85 2.05,14.7 2.25,15.5 C2.35,15.8 4.1,22.2 7.2,26.55 C4.3,27.2 1.75,28.05 1.6,28.1 C0.85,28.35 0.25,29.05 0.15,29.85 C0.05,30.65 0.45,31.45 1.1,31.9 C1.55,32.2 4.35,33.95 7.55,35.15 L5.4,36.55 L7.7,40.15 L14.1,36.05 C14.75,35.6 15.1,34.85 15.05,34.1 L23.65,34.1 C23.6,34.85 23.95,35.6 24.6,36.05 L31,40.15 L33.3,36.55 L31.15,35.15 C34.3,33.95 37.1,32.2 37.6,31.9 C38.3,31.45 38.65,30.65 38.55,29.85 C38.6,29.05 38,28.35 37.25,28.1 Z"/>
      <rect width="4.25" height="9.6" x="17.35" y="36.25"/>
    </g>
  </g>
</svg>
