<svg xmlns="http://www.w3.org/2000/svg" width="37" height="37" viewBox="0 0 37 37">
  <g fill="none" transform="translate(-15 -11)">
    <circle cx="32" cy="32" r="32"/>
    <g fill="#000" transform="translate(15 11)">
      <path d="M21 20.35L16.05 15.4 3.7 20.35 7.10542736e-15 36.4 16.05 32.7 21 20.35zM9.9 26.5C8.9 25.5 8.9 23.8 9.9 22.8 10.9 21.8 12.6 21.8 13.6 22.8 14.6 23.8 14.6 25.5 13.6 26.5 12.6 27.5 10.9 27.5 9.9 26.5zM25.75 18.05L35.2 8.6C36.55 7.25 36.55 5.05 35.2 3.65L32.75 1.2C31.4-.15 29.2-.15 27.8 1.2L18.35 10.65 25.75 18.05z"/>
    </g>
  </g>
</svg>
