<?xml version="1.0" encoding="utf-8"?>
<!-- Generator: Adobe Illustrator 21.0.2, SVG Export Plug-In . SVG Version: 6.00 Build 0)  -->
<svg version="1.1" id="Ebene_1" xmlns="http://www.w3.org/2000/svg" xmlns:xlink="http://www.w3.org/1999/xlink" x="0px" y="0px"
	 viewBox="0 0 128 128" style="enable-background:new 0 0 128 128;" xml:space="preserve">
<style type="text/css">
	.st0{fill:#E2001A;}
	.st1{fill:#FFFFFF;}
</style>
<circle class="st0" cx="64" cy="64" r="64"/>
<path class="st1" d="M89,25.6H37L14.9,53.8l47.5,61.9L108.9,54L89,25.6z M42.4,58.6l9.4,30l-23-30H42.4z M73.8,58.6L62.3,95.5
	L50.8,58.6H73.8z M51.3,50.6c2.9-7,5.6-13.6,7-16.9h7.8c1.4,3.3,4.2,10,7,16.9H51.3z M82.2,58.6h13.1L73,88.2L82.2,58.6z M96.7,50.6
	H82c-3.4-8.3-5.6-13.6-7-16.9h9.9L96.7,50.6z M41,33.7h8.7c-1.4,3.4-3.6,8.7-7,16.9h-15L41,33.7z"/>
</svg>
