<svg xmlns="http://www.w3.org/2000/svg" width="40" height="33" viewBox="0 0 40 33">
  <g fill="none" transform="translate(-12 -12)">
    <circle cx="32" cy="32" r="32"/>
    <path fill="#000" d="M37.25,27.5 L37.25,23.85 L33.75,23.85 L33.75,27.35 L30.25,27.35 L30.25,23.85 L26.75,23.85 L26.75,27.5 C20.85,28.35 16.25,33.45 16.25,39.6 L16.25,44.85 L47.7,44.85 L47.7,39.55 C47.7,33.45 43.15,28.35 37.25,27.5 Z M32,41.3 C29.1,41.3 26.75,38.95 26.75,36.05 C26.75,33.15 29.1,30.8 32,30.8 C34.9,30.8 37.25,33.15 37.25,36.05 C37.25,38.95 34.9,41.3 32,41.3 Z"/>
    <path fill="#000" d="M32,12.8 C20.7,12.8 12.8,18.05 12.8,25.6 L16,25.6 L19.2,25.6 L22.4,25.6 L22.4,21.3 C24.9,19.9 28.5,19.2 32,19.2 C35.6,19.2 39.1,19.95 41.5,21.2 C41.55,21.2 41.55,21.25 41.6,21.25 L41.6,25.55 L44.8,25.55 L48,25.55 L51.2,25.55 C51.2,18.05 43.3,12.8 32,12.8 Z"/>
  </g>
</svg>
