<?xml version="1.0" encoding="utf-8"?>
<!-- Generator: Adobe Illustrator 21.0.2, SVG Export Plug-In . SVG Version: 6.00 Build 0)  -->
<svg version="1.1" id="Ebene_1" xmlns="http://www.w3.org/2000/svg" xmlns:xlink="http://www.w3.org/1999/xlink" x="0px" y="0px"
	 viewBox="0 0 128 128" style="enable-background:new 0 0 128 128;" xml:space="preserve">
<style type="text/css">
	.st0{fill:#E2001A;}
	.st1{fill:#FFFFFF;}
</style>
<circle class="st0" cx="64" cy="64" r="64"/>
<g>
	<path class="st1" d="M72,62.7l-9.9-9.9l-24.7,9.9l-7.4,32.1l32.1-7.4L72,62.7z M49.8,75c-2-2-2-5.4,0-7.4c2-2,5.4-2,7.4,0
		c2,2,2,5.4,0,7.4C55.2,77,51.8,77,49.8,75z"/>
	<path class="st1" d="M81.5,58.1l18.9-18.9c2.7-2.7,2.7-7.1,0-9.9l-4.9-4.9c-2.7-2.7-7.1-2.7-9.9,0L66.7,43.3L81.5,58.1z"/>
</g>
</svg>
