<?xml version="1.0" encoding="utf-8"?>
<!-- Generator: Adobe Illustrator 21.0.2, SVG Export Plug-In . SVG Version: 6.00 Build 0)  -->
<svg version="1.1" id="Ebene_1" xmlns="http://www.w3.org/2000/svg" xmlns:xlink="http://www.w3.org/1999/xlink" x="0px" y="0px"
	 viewBox="0 0 128 128" style="enable-background:new 0 0 128 128;" xml:space="preserve">
<style type="text/css">
	.st0{fill:#E2001A;}
	.st1{fill:#FFFFFF;}
</style>
<circle class="st0" cx="64" cy="64" r="64"/>
<g>
	<path class="st1" d="M56.5,67.7V64H19.2v3.7c0,10.3,8.4,18.7,18.7,18.7S56.5,78,56.5,67.7z"/>
	<path class="st1" d="M71.5,64v3.7c0,10.3,8.4,18.7,18.7,18.7s18.7-8.4,18.7-18.7V64H71.5z"/>
	<polygon class="st1" points="67.7,41.6 84.1,41.6 74.8,60.3 83.1,60.3 90.1,46.2 97.2,60.3 105.5,60.3 96.2,41.6 101.3,41.6 
		101.3,34.1 67.7,34.1 67.7,26.7 60.3,26.7 60.3,34.1 26.7,34.1 26.7,41.6 31.8,41.6 22.5,60.3 30.8,60.3 37.9,46.2 44.9,60.3 
		53.2,60.3 43.9,41.6 60.3,41.6 60.3,93.9 49.1,93.9 49.1,101.3 78.9,101.3 78.9,93.9 67.7,93.9 	"/>
</g>
</svg>
