<?xml version="1.0" encoding="utf-8"?>
<!-- Generator: Adobe Illustrator 21.0.2, SVG Export Plug-In . SVG Version: 6.00 Build 0)  -->
<svg version="1.1" id="Ebene_1" xmlns="http://www.w3.org/2000/svg" xmlns:xlink="http://www.w3.org/1999/xlink" x="0px" y="0px"
	 viewBox="0 0 128 128" style="enable-background:new 0 0 128 128;" xml:space="preserve">
<style type="text/css">
	.st0{fill:#E2001A;}
	.st1{fill:#FFFFFF;}
</style>
<circle class="st0" cx="64" cy="64" r="64"/>
<path class="st1" d="M85.5,81.5v-10H80c-0.7-3.2-1.9-6.1-3.7-8.8l3.9-3.9l-7.1-7.1l-3.9,3.9c-2.6-1.7-5.6-3-8.7-3.6v-5.5h-10v5.5
	c-3.2,0.6-6.1,1.9-8.8,3.7l-3.9-3.9l-7.1,7.1l3.9,3.9c-1.7,2.6-3,5.6-3.7,8.8h-5.5v10h5.5c0.6,3.2,1.9,6.1,3.7,8.8l-3.9,3.9l7.1,7.1
	l3.9-3.9c2.6,1.7,5.6,3,8.8,3.7v5.5h10V101c3.2-0.6,6.1-1.9,8.8-3.7l3.9,3.9l7.1-7.1l-3.9-3.9c1.7-2.6,3-5.6,3.7-8.7H85.5z
	 M55.6,86.5c-5.5,0-10-4.5-10-10c0-5.5,4.5-10,10-10c5.5,0,10,4.5,10,10C65.5,82,61.1,86.5,55.6,86.5z"/>
<path class="st1" d="M89.6,28.2l-1.7-4.9l-2.7,0.9c-0.9-1.5-2-2.7-3.3-3.7l1.3-2.6l-4.7-2.3l-1.3,2.6c-1.6-0.4-3.3-0.5-5-0.3
	l-0.9-2.7l-4.9,1.7l0.9,2.7c-1.5,0.9-2.7,2-3.7,3.3l-2.6-1.3l-2.3,4.7l2.6,1.3c-0.4,1.6-0.5,3.3-0.3,5l-2.7,0.9l1.7,4.9l2.7-0.9
	c0.9,1.5,2,2.7,3.3,3.7l-1.3,2.6l4.7,2.3l1.3-2.6c1.6,0.4,3.3,0.5,5,0.3l0.9,2.7l4.9-1.7l-0.9-2.7c1.5-0.9,2.7-2,3.7-3.3l2.6,1.3
	l2.3-4.7l-2.6-1.3c0.4-1.6,0.5-3.3,0.3-5L89.6,28.2z M75.6,35.8c-2.7,0.9-5.7-0.5-6.7-3.2c-0.9-2.7,0.5-5.7,3.2-6.7
	c2.7-0.9,5.7,0.5,6.7,3.2C79.8,31.9,78.3,34.8,75.6,35.8z"/>
<path class="st1" d="M104.5,58.1l-1.2-3.5l-1.9,0.7c-0.6-1-1.4-1.9-2.3-2.6l0.9-1.8l-3.3-1.6l-0.9,1.8c-1.1-0.3-2.3-0.4-3.5-0.2
	l-0.7-1.9l-3.5,1.2l0.7,1.9c-1,0.6-1.9,1.4-2.6,2.3l-1.8-0.9l-1.6,3.3l1.8,0.9c-0.3,1.1-0.4,2.3-0.2,3.5l-1.9,0.7l1.2,3.5l1.9-0.7
	c0.6,1,1.4,1.9,2.3,2.6L87.1,69l3.3,1.6l0.9-1.8c1.1,0.3,2.3,0.4,3.5,0.2l0.7,1.9l3.5-1.2l-0.7-1.9c1-0.6,1.9-1.4,2.6-2.3l1.8,0.9
	l1.6-3.3l-1.8-0.9c0.3-1.1,0.4-2.3,0.2-3.5L104.5,58.1z M94.7,63.4c-1.9,0.7-4-0.4-4.7-2.3c-0.7-1.9,0.4-4,2.3-4.7
	c1.9-0.7,4,0.4,4.7,2.3C97.7,60.6,96.6,62.7,94.7,63.4z"/>
</svg>
