<?xml version="1.0" encoding="utf-8"?>
<!-- Generator: Adobe Illustrator 21.0.2, SVG Export Plug-In . SVG Version: 6.00 Build 0)  -->
<svg version="1.1" id="Ebene_1" xmlns="http://www.w3.org/2000/svg" xmlns:xlink="http://www.w3.org/1999/xlink" x="0px" y="0px"
	 viewBox="0 0 128 128" style="enable-background:new 0 0 128 128;" xml:space="preserve">
<style type="text/css">
	.st0{fill:#E2001A;}
	.st1{fill:#FFFFFF;}
</style>
<circle class="st0" cx="64" cy="64" r="64"/>
<g>
	<path class="st1" d="M98.6,51.2h-3.8c-2.1,0-3.8,1.7-3.8,3.8v3.8H37.1v-23c0-2.1-1.7-3.8-3.8-3.8h-3.8c-2.1,0-3.8,1.7-3.8,3.8v49.9
		c0,2.1,1.7,3.8,3.8,3.8h3.8c2.1,0,3.8-1.7,3.8-3.8v-3.8h53.8v3.8c0,2.1,1.7,3.8,3.8,3.8h3.8c2.1,0,3.8-1.7,3.8-3.8V55
		C102.4,52.9,100.7,51.2,98.6,51.2z"/>
	<path class="st1" d="M70.4,44.8c0-4.2-3.4-7.7-7.7-7.7H47.4v11.5h23V44.8z"/>
</g>
</svg>
