<?xml version="1.0" encoding="utf-8"?>
<!-- Generator: Adobe Illustrator 21.0.2, SVG Export Plug-In . SVG Version: 6.00 Build 0)  -->
<svg version="1.1" id="Ebene_1" xmlns="http://www.w3.org/2000/svg" xmlns:xlink="http://www.w3.org/1999/xlink" x="0px" y="0px"
	 viewBox="0 0 128 128" style="enable-background:new 0 0 128 128;" xml:space="preserve">
<style type="text/css">
	.st0{fill:#E2001A;}
	.st1{fill:#FFFFFF;}
</style>
<circle class="st0" cx="64" cy="64" r="64"/>
<g>
	<path class="st1" d="M63.3,49.1c-8.6,0-15.6,7-15.6,15.6c0,8.6,7,15.6,15.6,15.6s15.6-7,15.6-15.6C78.9,56.1,71.9,49.1,63.3,49.1z"
		/>
	<path class="st1" d="M94.6,37.3H87c-2.6,0-5.1-1.3-6.5-3.5l-3.2-4.8c-1.5-2.2-3.9-3.5-6.5-3.5H55.7c-2.6,0-5.1,1.3-6.5,3.5L46,33.9
		c-1.5,2.2-3.9,3.5-6.5,3.5H32c-4.3,0-7.8,3.5-7.8,7.8v43c0,4.3,3.5,7.8,7.8,7.8h62.6c4.3,0,7.8-3.5,7.8-7.8v-43
		C102.4,40.8,98.9,37.3,94.6,37.3z M63.3,88.2c-12.9,0-23.5-10.5-23.5-23.5c0-12.9,10.5-23.5,23.5-23.5s23.5,10.5,23.5,23.5
		C86.8,77.7,76.2,88.2,63.3,88.2z"/>
</g>
</svg>
