<?xml version="1.0" encoding="utf-8"?>
<!-- Generator: Adobe Illustrator 21.0.2, SVG Export Plug-In . SVG Version: 6.00 Build 0)  -->
<svg version="1.1" id="Ebene_1" xmlns="http://www.w3.org/2000/svg" xmlns:xlink="http://www.w3.org/1999/xlink" x="0px" y="0px"
	 viewBox="0 0 128 128" style="enable-background:new 0 0 128 128;" xml:space="preserve">
<style type="text/css">
	.st0{fill:#E2001A;}
	.st1{fill:#FFFFFF;}
</style>
<circle class="st0" cx="64" cy="64" r="64"/>
<g>
	<path class="st1" d="M17.9,64c0,4,0.6,7.9,1.8,11.5h17.4v-23H19.7C18.5,56.1,17.9,60,17.9,64z"/>
	<path class="st1" d="M23.1,44.8h14v-14C31.3,34.2,26.5,39,23.1,44.8z"/>
	<polygon class="st1" points="60.2,52.5 44.8,52.5 44.8,75.5 67.8,75.5 67.8,64 60.2,64 	"/>
	<path class="st1" d="M60.2,25.8c-1.3-0.1-2.5-0.2-3.8-0.2c-4,0-7.9,0.6-11.5,1.8v17.4h15.4V25.8z"/>
	<path class="st1" d="M75.5,97.2c5.8-3.4,10.6-8.2,14-14h-14V97.2z"/>
	<path class="st1" d="M37.1,97.2v-14h-14C26.5,89,31.3,93.8,37.1,97.2z"/>
	<path class="st1" d="M75.5,75.5H93c1.1-3.6,1.8-7.5,1.8-11.5H75.5V75.5z"/>
	<path class="st1" d="M44.8,100.6c3.6,1.1,7.5,1.8,11.5,1.8s7.9-0.6,11.5-1.8V83.2h-23V100.6z"/>
	<path class="st1" d="M109.7,31.4c-0.9-1.9-3.1-2.8-5-2L94,34.2l-12.8-8.1l-6.2,3.2c0.6,0.4,11.7,7.8,12.4,7.8l-9.3,4.2l-8.1-3.6
		L64,41.2l15.4,7.7l8.4-3.9L82,60.2l6.9-3.6l8.4-15.4l10.5-4.6C109.7,35.7,110.6,33.4,109.7,31.4z"/>
</g>
</svg>
