<svg xmlns="http://www.w3.org/2000/svg" width="40" height="33" viewBox="0 0 40 33">
  <g fill="none" transform="translate(-12 -12)">
    <circle cx="32" cy="32" r="32"/>
    <g fill="#000" transform="translate(12 12.5)">
      <circle cx="30" cy="28.3" r="4"/>
      <path d="M13.95,22.65 C13.95,22.55 14,22.45 14,22.3 L14,8.3 C14,7.2 13.1,6.3 12,6.3 L8,6.3 C3.6,6.3 0,9.9 0,14.3 L0,26.3 C0,27.4 0.9,28.3 2,28.3 L6,28.3 C6,25 8.7,22.3 12,22.3 C12.7,22.3 13.3,22.45 13.95,22.65 Z M10,16.3 L4,16.3 L4,12.3 L10,12.3 L10,16.3 Z"/>
      <circle cx="12" cy="28.3" r="4"/>
      <path d="M36,0.3 L20,0.3 C17.8,0.3 16,2.1 16,4.3 L16,23.85 C17.2,24.95 18,26.5 18,28.3 L24,28.3 C24,25 26.7,22.3 30,22.3 C33.3,22.3 36,25 36,28.3 L38,28.3 C39.1,28.3 40,27.4 40,26.3 L40,4.3 C40,2.1 38.2,0.3 36,0.3 Z"/>
    </g>
  </g>
</svg>
