<?xml version="1.0" encoding="utf-8"?>
<!-- Generator: Adobe Illustrator 21.0.2, SVG Export Plug-In . SVG Version: 6.00 Build 0)  -->
<svg version="1.1" id="Ebene_1" xmlns="http://www.w3.org/2000/svg" xmlns:xlink="http://www.w3.org/1999/xlink" x="0px" y="0px"
	 viewBox="0 0 128 128" style="enable-background:new 0 0 128 128;" xml:space="preserve">
<style type="text/css">
	.st0{fill:#E2001A;}
	.st1{fill:#FFFFFF;}
</style>
<circle class="st0" cx="64" cy="64" r="64"/>
<g>
	<path class="st1" d="M53.9,71c0,5.3-4.3,9.6-9.6,9.6c-5.3,0-9.6-4.3-9.6-9.6s4.3-9.6,9.6-9.6C49.6,61.4,53.9,65.7,53.9,71"/>
	<path class="st1" d="M62.9,96c-1.7-6.6-7.7-11.5-14.8-11.5h-7.7c-7.2,0-13.1,4.9-14.8,11.5H62.9z"/>
	<path class="st1" d="M93.3,71c0,5.3-4.3,9.6-9.6,9.6c-5.3,0-9.6-4.3-9.6-9.6s4.3-9.6,9.6-9.6C89,61.4,93.3,65.7,93.3,71"/>
	<path class="st1" d="M102.4,96c-1.7-6.6-7.7-11.5-14.8-11.5h-7.7c-7.2,0-13.1,4.9-14.8,11.5H102.4z"/>
	<path class="st1" d="M73.6,28.8c0,5.3-4.3,9.6-9.6,9.6c-5.3,0-9.6-4.3-9.6-9.6s4.3-9.6,9.6-9.6C69.3,19.2,73.6,23.5,73.6,28.8"/>
	<path class="st1" d="M82.7,53.8c-1.7-6.6-7.7-11.5-14.8-11.5h-7.7c-7.2,0-13.1,4.9-14.8,11.5H82.7z"/>
</g>
</svg>
