<?xml version="1.0" encoding="utf-8"?>
<!-- Generator: Adobe Illustrator 21.0.2, SVG Export Plug-In . SVG Version: 6.00 Build 0)  -->
<svg version="1.1" id="Ebene_1" xmlns="http://www.w3.org/2000/svg" xmlns:xlink="http://www.w3.org/1999/xlink" x="0px" y="0px"
	 viewBox="0 0 128 128" style="enable-background:new 0 0 128 128;" xml:space="preserve">
<style type="text/css">
	.st0{fill:#E2001A;}
	.st1{fill:#FFFFFF;}
</style>
<circle class="st0" cx="64" cy="64" r="64"/>
<g>
	<circle class="st1" cx="74.4" cy="44.7" r="3.6"/>
	<circle class="st1" cx="81.6" cy="37.5" r="3.6"/>
	<circle class="st1" cx="92.4" cy="30.3" r="3.6"/>
	<circle class="st1" cx="92.4" cy="44.7" r="3.6"/>
	<circle class="st1" cx="92.4" cy="59.1" r="3.6"/>
	<circle class="st1" cx="81.6" cy="51.9" r="3.6"/>
	<path class="st1" d="M67.1,41.1c0-2-1.6-3.6-3.6-3.6h-18c-1.2,0-2.3,0.6-3,1.6l-7.2,10.8c-0.7,1.1-0.8,2.5-0.2,3.7
		c0.6,1.2,1.8,1.9,3.2,1.9h0h21.6h0v3.6h0c0,1,0.4,1.9,1.1,2.5l10.8,10.8l5.1-5.1l-9.8-9.8V41.1z"/>
	<path class="st1" d="M56.3,61.2v-2.1H41.9v2.1L32.1,71c-0.7,0.7-1.1,1.6-1.1,2.5v25.2c0,2,1.6,3.6,3.6,3.6h28.9
		c2,0,3.6-1.6,3.6-3.6V73.5c0-1-0.4-1.9-1.1-2.5L56.3,61.2z"/>
</g>
</svg>
