<svg xmlns="http://www.w3.org/2000/svg" width="40" height="39" viewBox="0 0 40 39">
  <g fill="none" transform="translate(-12 -9)">
    <circle cx="32" cy="32" r="32"/>
    <g fill="#000" transform="translate(12.5 9.5)">
      <path d="M14.45 26C14.45 28.65 12.3 30.8 9.65 30.8 7 30.8 4.85 28.65 4.85 26 4.85 23.35 7 21.2 9.65 21.2 12.3 21.2 14.45 23.35 14.45 26M18.95 38.5C18.1 35.2 15.1 32.75 11.55 32.75L7.7 32.75C4.1 32.75 1.15 35.2.3 38.5L18.95 38.5zM34.15 26C34.15 28.65 32 30.8 29.35 30.8 26.7 30.8 24.55 28.65 24.55 26 24.55 23.35 26.7 21.2 29.35 21.2 32 21.2 34.15 23.35 34.15 26M38.7 38.5C37.85 35.2 34.85 32.75 31.3 32.75L27.45 32.75C23.85 32.75 20.9 35.2 20.05 38.5L38.7 38.5zM24.3 4.9C24.3 7.55 22.15 9.7 19.5 9.7 16.85 9.7 14.7 7.55 14.7 4.9 14.7 2.25 16.85.1 19.5.1 22.15.1 24.3 2.25 24.3 4.9M28.85 17.4C28 14.1 25 11.65 21.45 11.65L17.6 11.65C14 11.65 11.05 14.1 10.2 17.4L28.85 17.4z"/>
    </g>
  </g>
</svg>
