<?xml version="1.0" encoding="UTF-8"?>
<svg width="64px" height="64px" viewBox="0 0 64 64" version="1.1" xmlns="http://www.w3.org/2000/svg" xmlns:xlink="http://www.w3.org/1999/xlink">
    <!-- Generator: Sketch 49.3 (51167) - http://www.bohemiancoding.com/sketch -->
    <title>Artboard</title>
    <desc>Created with Sketch.</desc>
    <defs></defs>
    <g id="Artboard" stroke="none" stroke-width="1" fill="none" fill-rule="evenodd">
        <g id="icon-beauty">
            <circle id="Oval" cx="32" cy="32" r="32"></circle>
            <g id="Group" transform="translate(22.000000, 7.000000)" fill="#000000" fill-rule="nonzero">
                <path d="M3.95,44.9 L12.85,44.9 C14.8,44.9 16.4,43.3 16.4,41.35 L0.4,41.35 C0.4,43.35 2,44.9 3.95,44.9 Z" id="Shape"></path>
                <rect id="Rectangle-path" x="0.4" y="25.7" width="16" height="10.65"></rect>
                <path d="M14.6,2.1 C14.6,1.5 14.3,0.95 13.8,0.6 C13.3,0.25 12.65,0.2 12.1,0.45 L3.2,4.25 C2.55,4.55 2.1,5.15 2.1,5.9 L2.1,20.75 L14.55,20.75 L14.55,2.1 L14.6,2.1 Z M9.3,17.2 L5.75,17.2 L5.75,8.05 L9.3,6.55 L9.3,17.2 Z" id="Shape"></path>
            </g>
        </g>
    </g>
</svg>