<svg xmlns="http://www.w3.org/2000/svg" width="44" height="37" viewBox="0 0 44 37">
  <g fill="none" transform="translate(-10 -12)">
    <circle cx="32" cy="32" r="32"/>
    <path fill="#000" d="M45.8,31.7 L44.35,14.3 C44.3,13.45 43.6,12.8 42.75,12.8 L36.3,12.8 C35.4,12.8 34.7,13.5 34.7,14.4 C34.7,15.3 35.4,16 36.3,16 L41.25,16 L41.9,23.5 L30.7,23.5 L28.55,20.3 L32,20.3 C32.9,20.3 33.6,19.6 33.6,18.7 C33.6,17.8 32.9,17.1 32,17.1 L21.25,17.1 C20.35,17.1 19.65,17.8 19.65,18.7 C19.65,19.6 20.35,20.3 21.25,20.3 L24.7,20.3 L26.85,23.5 L25.55,23.5 C24.9,23.5 24.3,23.9 24.05,24.5 L20.9,31.8 C20.3,31.65 19.7,31.6 19.05,31.6 C14.3,31.6 10.45,35.45 10.45,40.2 C10.45,44.95 14.3,48.8 19.05,48.8 C23.8,48.8 27.65,44.95 27.65,40.2 C27.65,39.1 27.4,38.05 27.05,37.05 L42.2,27.5 L42.55,31.95 C38.95,32.95 36.25,36.25 36.25,40.2 C36.25,44.95 40.1,48.8 44.85,48.8 C49.6,48.8 53.5,44.95 53.5,40.2 C53.5,35.75 50.1,32.15 45.8,31.7 Z M23.4,40.2 C23.4,42.55 21.45,44.5 19.1,44.5 C16.75,44.5 14.8,42.55 14.8,40.2 C14.8,37.85 16.75,35.9 19.1,35.9 C19.15,35.9 19.15,35.9 19.2,35.9 L17.65,39.55 C17.35,40.2 17.55,40.95 18.1,41.4 C18.65,41.85 19.4,41.9 20,41.55 L23.35,39.4 C23.35,39.7 23.4,39.95 23.4,40.2 Z M25.35,34.35 C24.9,33.9 24.45,33.45 23.9,33.1 L26.6,26.8 L37.3,26.8 L25.35,34.35 Z M44.9,44.5 C42.55,44.5 40.6,42.55 40.6,40.2 C40.6,38.55 41.55,37.1 42.95,36.4 L43.3,40.35 C43.35,41.2 44.1,41.9 45.05,41.8 C45.95,41.7 46.6,40.95 46.5,40.05 L46.15,36.1 C47.9,36.65 49.15,38.25 49.15,40.2 C49.2,42.55 47.25,44.5 44.9,44.5 Z"/>
  </g>
</svg>
