<?xml version="1.0" encoding="utf-8"?>
<!-- Generator: Adobe Illustrator 21.0.2, SVG Export Plug-In . SVG Version: 6.00 Build 0)  -->
<svg version="1.1" id="Ebene_1" xmlns="http://www.w3.org/2000/svg" xmlns:xlink="http://www.w3.org/1999/xlink" x="0px" y="0px"
	 viewBox="0 0 128 128" style="enable-background:new 0 0 128 128;" xml:space="preserve">
<style type="text/css">
	.st0{fill:#E2001A;}
	.st1{fill:#FFFFFF;}
</style>
<circle class="st0" cx="64" cy="64" r="64"/>
<path class="st1" d="M91.6,63.4l-2.9-34.8c-0.1-1.7-1.5-3-3.2-3H72.6c-1.8,0-3.2,1.4-3.2,3.2s1.4,3.2,3.2,3.2h9.9l1.3,15H61.4
	l-4.3-6.4H64c1.8,0,3.2-1.4,3.2-3.2c0-1.8-1.4-3.2-3.2-3.2H42.5c-1.8,0-3.2,1.4-3.2,3.2c0,1.8,1.4,3.2,3.2,3.2h6.9l4.3,6.4h-2.6
	c-1.3,0-2.5,0.8-3,2l-6.3,14.6c-1.2-0.3-2.4-0.4-3.7-0.4c-9.5,0-17.2,7.7-17.2,17.2s7.7,17.2,17.2,17.2s17.2-7.7,17.2-17.2
	c0-2.2-0.5-4.3-1.2-6.3L84.4,55l0.7,8.9c-7.2,2-12.6,8.6-12.6,16.5c0,9.5,7.7,17.2,17.2,17.2S107,89.9,107,80.4
	C107,71.5,100.2,64.3,91.6,63.4z M46.8,80.4c0,4.7-3.9,8.6-8.6,8.6s-8.6-3.9-8.6-8.6c0-4.7,3.9-8.6,8.6-8.6c0.1,0,0.1,0,0.2,0
	l-3.1,7.3c-0.6,1.3-0.2,2.8,0.9,3.7c1.1,0.9,2.6,1,3.8,0.3l6.7-4.3C46.7,79.4,46.8,79.9,46.8,80.4z M50.7,68.7
	c-0.9-0.9-1.8-1.8-2.9-2.5l5.4-12.6h21.4L50.7,68.7z M89.8,89c-4.7,0-8.6-3.9-8.6-8.6c0-3.3,1.9-6.2,4.7-7.6l0.7,7.9
	c0.1,1.7,1.6,3.1,3.5,2.9c1.8-0.2,3.1-1.7,2.9-3.5l-0.7-7.9c3.5,1.1,6,4.3,6,8.2C98.4,85.1,94.5,89,89.8,89z"/>
</svg>
