<?xml version="1.0" encoding="utf-8"?>
<!-- Generator: Adobe Illustrator 21.0.2, SVG Export Plug-In . SVG Version: 6.00 Build 0)  -->
<svg version="1.1" id="Ebene_1" xmlns="http://www.w3.org/2000/svg" xmlns:xlink="http://www.w3.org/1999/xlink" x="0px" y="0px"
	 viewBox="0 0 128 128" style="enable-background:new 0 0 128 128;" xml:space="preserve">
<style type="text/css">
	.st0{fill:#E2001A;}
	.st1{fill:#FFFFFF;}
</style>
<circle class="st0" cx="64" cy="64" r="64"/>
<g>
	<path class="st1" d="M101.5,28.8c-4.3-4.3-11.2-4.3-15.5,0L70.6,44.3l-6.2-6.2c-3.4-3.4-8.9-3.4-12.4,0l-6.2,6.2L86,84.4l6.2-6.2
		c3.4-3.4,3.4-8.9,0-12.4L86,59.7l15.5-15.5C105.8,40,105.8,33.1,101.5,28.8z M95.3,41.2c-1.7,1.7-4.5,1.7-6.2,0
		c-1.7-1.7-1.7-4.5,0-6.2c1.7-1.7,4.5-1.7,6.2,0C97,36.7,97,39.5,95.3,41.2z"/>
	<path class="st1" d="M36.6,59.7c-6.2,6.2-13.7,4.8-15.5,3.1c-1.7,1.7-1.7,4.5,0,6.2L49,96.8c9.3,9.3,18.5,0,18.5,0l12.4-12.4
		l-34-34L36.6,59.7z"/>
</g>
</svg>
